<?xml version="1.0" encoding="utf-8"?>
<!-- Generator: Adobe Illustrator 15.0.0, SVG Export Plug-In . SVG Version: 6.00 Build 0)  -->
<!DOCTYPE svg PUBLIC "-//W3C//DTD SVG 1.1//EN" "http://www.w3.org/Graphics/SVG/1.1/DTD/svg11.dtd">
<svg version="1.1" xmlns="http://www.w3.org/2000/svg" xmlns:xlink="http://www.w3.org/1999/xlink" x="0px" y="0px" width="500px"
	 height="260px" viewBox="0 0 500 260" enable-background="new 0 0 500 260" xml:space="preserve">
<g id="Layer_2" display="none">
	<rect x="-307" y="-243" display="inline" fill="#004DDA" width="1114" height="746"/>
</g>
<g id="Layer_1">
	<g id="XMLID_27_">
		<g id="XMLID_10_">
			<path opacity="0.1" fill="#EDF6FC" d="M22.68,43.311h438.716c11.482,0,20.794,9.311,20.794,20.796l0,0
				c0,11.486-9.312,20.795-20.794,20.795h-85.729c-10,0-18.11,8.11-18.11,18.113l0,0c0,10.002,8.11,18.111,18.11,18.111H480.59
				c11.058,0,20.019,8.964,20.019,20.02l0,0c0,11.057-8.961,20.021-20.019,20.021h-52.572l0,0c0,20.038-16.243,36.282-36.282,36.282
				l0,0c-8.848,0-16.021,7.171-16.021,16.021v42.715H145.399v-3.519c0-21.315-17.17-38.658-38.486-38.869l-66.442-0.79
				c-12.174-0.122-21.979-10.025-21.979-22.2l0,0c0-12.257,9.94-22.197,22.2-22.197h66.295l0,0c0-20.213,16.385-36.6,36.599-36.6
				h3.104c12.304,0,22.278-9.973,22.278-22.277l0,0c0-12.304-9.974-22.278-22.278-22.278H22.68
				c-12.189,0-22.072-9.882-22.072-22.071l0,0C0.608,53.193,10.49,43.311,22.68,43.311z"/>
		</g>
		<g id="XMLID_60_">
			<g id="XMLID_347_">
				<rect x="109.184" y="112.28" fill="#9ECFEF" width="78.911" height="9.863"/>
			</g>
			<g id="XMLID_336_">
				<path id="XMLID_1300_" fill="#0686D8" d="M189.889,123.938H107.39v-13.452h82.499V123.938z M110.978,120.35h75.323v-6.275
					h-75.323V120.35z"/>
			</g>
			<g id="XMLID_333_">
				<rect x="101.589" y="119.521" fill="#FFFFFF" width="94.889" height="135.849"/>
			</g>
			<g id="XMLID_77_">
				<polygon id="XMLID_1299_" fill="#0686D8" points="103.383,255.37 99.796,255.37 99.796,117.728 192.891,117.728 
					192.891,121.315 103.383,121.315 				"/>
			</g>
			<g id="XMLID_277_">
				<rect x="113.908" y="131.743" fill="#D2E9F7" width="70.25" height="123.627"/>
			</g>
			<g id="XMLID_68_">
				<path id="XMLID_1296_" fill="#0686D8" d="M185.953,257.163h-73.838V129.95h73.838V257.163z M115.702,253.577h66.663V133.539
					h-66.663V253.577z"/>
			</g>
			<g id="XMLID_62_">
				<rect x="125.295" y="142.188" fill="#FFFFFF" width="47.477" height="113.183"/>
			</g>
			<g id="XMLID_61_">
				<path id="XMLID_1293_" fill="#0686D8" d="M174.566,257.163H123.5V140.395h51.065V257.163z M127.088,253.577h43.89V143.981
					h-43.89V253.577z"/>
			</g>
		</g>
		<g id="XMLID_399_">
			<g id="XMLID_654_">
				<rect x="311.354" y="74.841" fill="#D2E9F7" width="64.688" height="180.226"/>
			</g>
			<g id="XMLID_653_">
				<rect x="311.354" y="74.841" fill="#FFFFFF" width="64.688" height="35.273"/>
			</g>
			<g id="XMLID_59_">
				<polygon id="XMLID_1292_" fill="#0686D8" points="377.836,256.859 311.354,256.859 311.354,253.273 374.248,253.273 
					374.248,76.635 316.853,76.635 316.853,73.048 377.836,73.048 				"/>
			</g>
			<g id="XMLID_650_">
				<g id="XMLID_651_">
					<rect id="XMLID_1291_" x="316.853" y="108.319" fill="#0686D8" width="59.189" height="3.588"/>
				</g>
			</g>
			<g id="XMLID_645_">
				<rect id="XMLID_1290_" x="316.853" y="119.305" fill="#0686D8" width="52.954" height="3.588"/>
			</g>
			<g id="XMLID_86_">
				<rect id="XMLID_1289_" x="316.853" y="129.468" fill="#0686D8" width="52.954" height="3.588"/>
			</g>
			<g id="XMLID_107_">
				<rect id="XMLID_1288_" x="316.853" y="139.632" fill="#0686D8" width="52.954" height="3.588"/>
			</g>
			<g id="XMLID_108_">
				<rect id="XMLID_1287_" x="316.853" y="149.798" fill="#0686D8" width="52.954" height="3.586"/>
			</g>
			<g id="XMLID_110_">
				<rect id="XMLID_1286_" x="316.853" y="159.959" fill="#0686D8" width="52.954" height="3.589"/>
			</g>
			<g id="XMLID_111_">
				<rect id="XMLID_1285_" x="316.853" y="170.125" fill="#0686D8" width="52.954" height="3.586"/>
			</g>
			<g id="XMLID_113_">
				<rect id="XMLID_1284_" x="316.853" y="180.286" fill="#0686D8" width="52.954" height="3.589"/>
			</g>
			<g id="XMLID_114_">
				<rect id="XMLID_1283_" x="316.853" y="190.452" fill="#0686D8" width="52.954" height="3.588"/>
			</g>
			<g id="XMLID_115_">
				<rect id="XMLID_1282_" x="316.853" y="200.617" fill="#0686D8" width="52.954" height="3.589"/>
			</g>
			<g id="XMLID_117_">
				<rect id="XMLID_1281_" x="316.853" y="210.78" fill="#0686D8" width="52.954" height="3.587"/>
			</g>
			<g id="XMLID_118_">
				<rect id="XMLID_1280_" x="316.853" y="220.941" fill="#0686D8" width="52.954" height="3.589"/>
			</g>
			<g id="XMLID_119_">
				<rect id="XMLID_1279_" x="316.853" y="231.107" fill="#0686D8" width="52.954" height="3.587"/>
			</g>
			<g id="XMLID_121_">
				<rect id="XMLID_1278_" x="316.853" y="241.272" fill="#0686D8" width="52.954" height="3.588"/>
			</g>
			<g id="XMLID_405_">
				<g id="XMLID_422_">
					<rect id="XMLID_1277_" x="318.249" y="79.747" fill="#0686D8" width="3.589" height="24.693"/>
				</g>
				<g id="XMLID_421_">
					<rect id="XMLID_1276_" x="325.337" y="79.747" fill="#0686D8" width="3.588" height="24.693"/>
				</g>
				<g id="XMLID_420_">
					<rect id="XMLID_1275_" x="332.426" y="79.747" fill="#0686D8" width="3.587" height="24.693"/>
				</g>
				<g id="XMLID_419_">
					<rect id="XMLID_1274_" x="339.514" y="79.747" fill="#0686D8" width="3.586" height="24.693"/>
				</g>
				<g id="XMLID_410_">
					<rect id="XMLID_1273_" x="346.602" y="79.747" fill="#0686D8" width="3.586" height="24.693"/>
				</g>
				<g id="XMLID_408_">
					<rect id="XMLID_1272_" x="353.687" y="79.747" fill="#0686D8" width="3.589" height="24.693"/>
				</g>
				<g id="XMLID_407_">
					<rect id="XMLID_1271_" x="360.773" y="79.747" fill="#0686D8" width="3.589" height="24.693"/>
				</g>
				<g id="XMLID_406_">
					<rect id="XMLID_1270_" x="367.86" y="79.747" fill="#0686D8" width="3.587" height="24.693"/>
				</g>
			</g>
		</g>
		<g id="XMLID_891_">
			<g id="XMLID_972_">
				<rect x="265.744" y="33.136" fill="#FFFFFF" width="39.468" height="18.087"/>
			</g>
			<g id="XMLID_970_">
				<path id="XMLID_1267_" fill="#0686D8" d="M307.006,53.017H263.95V31.34h43.056V53.017z M267.538,49.43h35.882V34.928h-35.882
					V49.43z"/>
			</g>
			<g id="XMLID_969_">
				<rect x="257.629" y="45.593" fill="#FFFFFF" width="55.698" height="209.072"/>
			</g>
			<g id="XMLID_968_">
				<rect x="269.154" y="45.593" fill="#D2E9F7" width="30.611" height="209.072"/>
			</g>
			<g id="XMLID_967_">
				<rect id="XMLID_1266_" x="263.95" fill="#0686D8" width="3.588" height="34.651"/>
			</g>
			<g id="XMLID_966_">
				<rect id="XMLID_1265_" x="303.42" fill="#0686D8" width="3.586" height="34.651"/>
			</g>
			<g id="XMLID_965_">
				<rect id="XMLID_1264_" x="283.527" y="10.441" fill="#0686D8" width="3.588" height="22.618"/>
			</g>
			<g id="XMLID_652_">
				<polygon id="XMLID_1263_" fill="#0686D8" points="315.121,254.665 311.532,254.665 311.532,47.387 259.424,47.387 
					259.424,80.943 255.836,80.943 255.836,43.798 315.121,43.798 				"/>
			</g>
			<g id="XMLID_893_">
				<rect id="XMLID_1262_" x="267.359" y="45.593" fill="#0686D8" width="3.59" height="39.691"/>
			</g>
			<g id="XMLID_892_">
				<rect id="XMLID_1261_" x="298.769" y="45.593" fill="#0686D8" width="3.587" height="208.311"/>
			</g>
		</g>
		<g id="XMLID_655_">
			<g id="XMLID_890_">
				<polygon fill="#FFFFFF" points="188.117,255.02 242.882,255.02 242.882,63.177 197.387,63.177 197.387,142.108 188.117,142.108 
									"/>
			</g>
			<g id="XMLID_428_">
				<polygon id="XMLID_1260_" fill="#0686D8" points="189.909,255.02 186.322,255.02 186.322,139.855 195.593,139.855 
					195.593,61.383 242.882,61.383 242.882,64.971 199.18,64.971 199.18,143.441 189.909,143.441 				"/>
			</g>
			<g id="XMLID_888_">
				<polygon fill="#5FB0E5" points="250.616,255.02 242.555,255.02 242.555,51.696 250.616,46.289 				"/>
			</g>
			<g id="XMLID_427_">
				<polygon id="XMLID_1259_" fill="#0686D8" points="244.348,82.812 240.761,82.812 240.761,50.739 252.412,42.924 252.412,82.141 
					248.823,82.141 248.823,49.651 244.348,52.653 				"/>
			</g>
			<g id="XMLID_886_">
				<rect id="XMLID_1258_" x="248.823" y="5.251" fill="#0686D8" width="3.589" height="43.588"/>
			</g>
			<g id="XMLID_841_">
				<rect id="XMLID_1257_" x="197.193" y="67.634" fill="#0686D8" width="44.917" height="3.588"/>
			</g>
			<g id="XMLID_840_">
				<rect id="XMLID_1256_" x="197.193" y="75.084" fill="#0686D8" width="44.917" height="3.587"/>
			</g>
			<g id="XMLID_839_">
				<rect id="XMLID_1255_" x="197.193" y="82.536" fill="#0686D8" width="44.917" height="3.588"/>
			</g>
			<g id="XMLID_838_">
				<rect id="XMLID_1254_" x="197.193" y="89.987" fill="#0686D8" width="44.917" height="3.587"/>
			</g>
			<g id="XMLID_837_">
				<rect id="XMLID_1253_" x="197.193" y="97.438" fill="#0686D8" width="44.917" height="3.586"/>
			</g>
			<g id="XMLID_836_">
				<rect id="XMLID_1252_" x="197.193" y="104.89" fill="#0686D8" width="26.978" height="3.588"/>
			</g>
			<g id="XMLID_835_">
				<rect id="XMLID_1251_" x="197.193" y="112.341" fill="#0686D8" width="26.978" height="3.589"/>
			</g>
			<g id="XMLID_834_">
				<rect id="XMLID_1250_" x="197.193" y="119.793" fill="#0686D8" width="22.196" height="3.588"/>
			</g>
			<g id="XMLID_833_">
				<rect id="XMLID_1249_" x="197.193" y="127.244" fill="#0686D8" width="19.803" height="3.588"/>
			</g>
			<g id="XMLID_828_">
				<rect id="XMLID_1248_" x="197.193" y="134.695" fill="#0686D8" width="44.917" height="3.588"/>
			</g>
			<g id="XMLID_827_">
				<rect id="XMLID_1247_" x="197.193" y="139.855" fill="#0686D8" width="44.917" height="3.586"/>
			</g>
			<g id="XMLID_815_">
				<g id="XMLID_826_">
					<rect id="XMLID_1246_" x="190.123" y="145.751" fill="#0686D8" width="3.587" height="3.551"/>
				</g>
				<g id="XMLID_825_">
					<rect id="XMLID_1245_" x="195.399" y="145.751" fill="#0686D8" width="3.587" height="3.551"/>
				</g>
				<g id="XMLID_824_">
					<rect id="XMLID_1244_" x="200.677" y="145.751" fill="#0686D8" width="3.587" height="3.551"/>
				</g>
				<g id="XMLID_823_">
					<rect id="XMLID_1243_" x="205.953" y="145.751" fill="#0686D8" width="3.589" height="3.551"/>
				</g>
				<g id="XMLID_822_">
					<rect id="XMLID_1242_" x="211.231" y="145.751" fill="#0686D8" width="3.588" height="3.551"/>
				</g>
				<g id="XMLID_821_">
					<rect id="XMLID_1241_" x="216.508" y="145.751" fill="#0686D8" width="3.587" height="3.551"/>
				</g>
				<g id="XMLID_820_">
					<rect id="XMLID_1240_" x="221.784" y="145.751" fill="#0686D8" width="3.589" height="3.551"/>
				</g>
				<g id="XMLID_819_">
					<rect id="XMLID_1239_" x="227.062" y="145.751" fill="#0686D8" width="3.588" height="3.551"/>
				</g>
				<g id="XMLID_818_">
					<rect id="XMLID_1238_" x="232.34" y="145.751" fill="#0686D8" width="3.588" height="3.551"/>
				</g>
				<g id="XMLID_816_">
					<rect id="XMLID_1237_" x="237.617" y="145.751" fill="#0686D8" width="3.588" height="3.551"/>
				</g>
			</g>
			<g id="XMLID_804_">
				<g id="XMLID_814_">
					<rect id="XMLID_1236_" x="190.123" y="153.167" fill="#0686D8" width="3.587" height="3.551"/>
				</g>
				<g id="XMLID_813_">
					<rect id="XMLID_1235_" x="195.399" y="153.167" fill="#0686D8" width="3.587" height="3.551"/>
				</g>
				<g id="XMLID_812_">
					<rect id="XMLID_1234_" x="200.677" y="153.167" fill="#0686D8" width="3.587" height="3.551"/>
				</g>
				<g id="XMLID_811_">
					<rect id="XMLID_1233_" x="205.953" y="153.167" fill="#0686D8" width="3.589" height="3.551"/>
				</g>
				<g id="XMLID_810_">
					<rect id="XMLID_1232_" x="211.231" y="153.167" fill="#0686D8" width="3.588" height="3.551"/>
				</g>
				<g id="XMLID_809_">
					<rect id="XMLID_1231_" x="216.508" y="153.167" fill="#0686D8" width="3.587" height="3.551"/>
				</g>
				<g id="XMLID_808_">
					<rect id="XMLID_1230_" x="221.784" y="153.167" fill="#0686D8" width="3.589" height="3.551"/>
				</g>
				<g id="XMLID_807_">
					<rect id="XMLID_1229_" x="227.062" y="153.167" fill="#0686D8" width="3.588" height="3.551"/>
				</g>
				<g id="XMLID_806_">
					<rect id="XMLID_1228_" x="232.34" y="153.167" fill="#0686D8" width="3.588" height="3.551"/>
				</g>
				<g id="XMLID_805_">
					<rect id="XMLID_1227_" x="237.617" y="153.167" fill="#0686D8" width="3.588" height="3.551"/>
				</g>
			</g>
			<g id="XMLID_791_">
				<g id="XMLID_802_">
					<rect id="XMLID_1226_" x="190.123" y="160.584" fill="#0686D8" width="3.587" height="3.55"/>
				</g>
				<g id="XMLID_801_">
					<rect id="XMLID_1225_" x="195.399" y="160.584" fill="#0686D8" width="3.587" height="3.55"/>
				</g>
				<g id="XMLID_800_">
					<rect id="XMLID_1224_" x="200.677" y="160.584" fill="#0686D8" width="3.587" height="3.55"/>
				</g>
				<g id="XMLID_799_">
					<rect id="XMLID_1223_" x="205.953" y="160.584" fill="#0686D8" width="3.589" height="3.55"/>
				</g>
				<g id="XMLID_798_">
					<rect id="XMLID_1222_" x="211.231" y="160.584" fill="#0686D8" width="3.588" height="3.55"/>
				</g>
				<g id="XMLID_797_">
					<rect id="XMLID_1221_" x="216.508" y="160.584" fill="#0686D8" width="3.587" height="3.55"/>
				</g>
				<g id="XMLID_796_">
					<rect id="XMLID_1220_" x="221.784" y="160.584" fill="#0686D8" width="3.589" height="3.55"/>
				</g>
				<g id="XMLID_795_">
					<rect id="XMLID_1219_" x="227.062" y="160.584" fill="#0686D8" width="3.588" height="3.55"/>
				</g>
				<g id="XMLID_794_">
					<rect id="XMLID_1218_" x="232.34" y="160.584" fill="#0686D8" width="3.588" height="3.55"/>
				</g>
				<g id="XMLID_793_">
					<rect id="XMLID_1217_" x="237.617" y="160.584" fill="#0686D8" width="3.588" height="3.55"/>
				</g>
			</g>
			<g id="XMLID_780_">
				<g id="XMLID_790_">
					<rect id="XMLID_1216_" x="190.123" y="168.002" fill="#0686D8" width="3.587" height="3.55"/>
				</g>
				<g id="XMLID_789_">
					<rect id="XMLID_1215_" x="195.399" y="168.002" fill="#0686D8" width="3.587" height="3.55"/>
				</g>
				<g id="XMLID_788_">
					<rect id="XMLID_1214_" x="200.677" y="168.002" fill="#0686D8" width="3.587" height="3.55"/>
				</g>
				<g id="XMLID_787_">
					<rect id="XMLID_1213_" x="205.953" y="168.002" fill="#0686D8" width="3.589" height="3.55"/>
				</g>
				<g id="XMLID_786_">
					<rect id="XMLID_1212_" x="211.231" y="168.002" fill="#0686D8" width="3.588" height="3.55"/>
				</g>
				<g id="XMLID_785_">
					<rect id="XMLID_1211_" x="216.508" y="168.002" fill="#0686D8" width="3.587" height="3.55"/>
				</g>
				<g id="XMLID_784_">
					<rect id="XMLID_1210_" x="221.784" y="168.002" fill="#0686D8" width="3.589" height="3.55"/>
				</g>
				<g id="XMLID_783_">
					<rect id="XMLID_1209_" x="227.062" y="168.002" fill="#0686D8" width="3.588" height="3.55"/>
				</g>
				<g id="XMLID_782_">
					<rect id="XMLID_1208_" x="232.34" y="168.002" fill="#0686D8" width="3.588" height="3.55"/>
				</g>
				<g id="XMLID_781_">
					<rect id="XMLID_1207_" x="237.617" y="168.002" fill="#0686D8" width="3.588" height="3.55"/>
				</g>
			</g>
			<g id="XMLID_768_">
				<g id="XMLID_779_">
					<rect id="XMLID_1206_" x="190.123" y="175.414" fill="#0686D8" width="3.587" height="3.551"/>
				</g>
				<g id="XMLID_777_">
					<rect id="XMLID_1205_" x="195.399" y="175.414" fill="#0686D8" width="3.587" height="3.551"/>
				</g>
				<g id="XMLID_776_">
					<rect id="XMLID_1204_" x="200.677" y="175.414" fill="#0686D8" width="3.587" height="3.551"/>
				</g>
				<g id="XMLID_775_">
					<rect id="XMLID_1203_" x="205.953" y="175.414" fill="#0686D8" width="3.589" height="3.551"/>
				</g>
				<g id="XMLID_774_">
					<rect id="XMLID_1202_" x="211.231" y="175.414" fill="#0686D8" width="3.588" height="3.551"/>
				</g>
				<g id="XMLID_773_">
					<rect id="XMLID_1201_" x="216.508" y="175.414" fill="#0686D8" width="3.587" height="3.551"/>
				</g>
				<g id="XMLID_772_">
					<rect id="XMLID_1200_" x="221.784" y="175.414" fill="#0686D8" width="3.589" height="3.551"/>
				</g>
				<g id="XMLID_771_">
					<rect id="XMLID_1199_" x="227.062" y="175.414" fill="#0686D8" width="3.588" height="3.551"/>
				</g>
				<g id="XMLID_770_">
					<rect id="XMLID_1198_" x="232.34" y="175.414" fill="#0686D8" width="3.588" height="3.551"/>
				</g>
				<g id="XMLID_769_">
					<rect id="XMLID_1197_" x="237.617" y="175.414" fill="#0686D8" width="3.588" height="3.551"/>
				</g>
			</g>
			<g id="XMLID_757_">
				<g id="XMLID_767_">
					<rect id="XMLID_1196_" x="190.123" y="182.832" fill="#0686D8" width="3.587" height="3.552"/>
				</g>
				<g id="XMLID_766_">
					<rect id="XMLID_1195_" x="195.399" y="182.832" fill="#0686D8" width="3.587" height="3.552"/>
				</g>
				<g id="XMLID_765_">
					<rect id="XMLID_1194_" x="200.677" y="182.832" fill="#0686D8" width="3.587" height="3.552"/>
				</g>
				<g id="XMLID_764_">
					<rect id="XMLID_1193_" x="205.953" y="182.832" fill="#0686D8" width="3.589" height="3.552"/>
				</g>
				<g id="XMLID_763_">
					<rect id="XMLID_1192_" x="211.231" y="182.832" fill="#0686D8" width="3.588" height="3.552"/>
				</g>
				<g id="XMLID_762_">
					<rect id="XMLID_1191_" x="216.508" y="182.832" fill="#0686D8" width="3.587" height="3.552"/>
				</g>
				<g id="XMLID_761_">
					<rect id="XMLID_1190_" x="221.784" y="182.832" fill="#0686D8" width="3.589" height="3.552"/>
				</g>
				<g id="XMLID_760_">
					<rect id="XMLID_1189_" x="227.062" y="182.832" fill="#0686D8" width="3.588" height="3.552"/>
				</g>
				<g id="XMLID_759_">
					<rect id="XMLID_1188_" x="232.34" y="182.832" fill="#0686D8" width="3.588" height="3.552"/>
				</g>
				<g id="XMLID_758_">
					<rect id="XMLID_1187_" x="237.617" y="182.832" fill="#0686D8" width="3.588" height="3.552"/>
				</g>
			</g>
			<g id="XMLID_746_">
				<g id="XMLID_756_">
					<rect id="XMLID_1186_" x="190.123" y="190.249" fill="#0686D8" width="3.587" height="3.55"/>
				</g>
				<g id="XMLID_755_">
					<rect id="XMLID_1185_" x="195.399" y="190.249" fill="#0686D8" width="3.587" height="3.55"/>
				</g>
				<g id="XMLID_754_">
					<rect id="XMLID_1184_" x="200.677" y="190.249" fill="#0686D8" width="3.587" height="3.55"/>
				</g>
				<g id="XMLID_753_">
					<rect id="XMLID_1183_" x="205.953" y="190.249" fill="#0686D8" width="3.589" height="3.55"/>
				</g>
				<g id="XMLID_752_">
					<rect id="XMLID_1182_" x="211.231" y="190.249" fill="#0686D8" width="3.588" height="3.55"/>
				</g>
				<g id="XMLID_751_">
					<rect id="XMLID_1181_" x="216.508" y="190.249" fill="#0686D8" width="3.587" height="3.55"/>
				</g>
				<g id="XMLID_750_">
					<rect id="XMLID_1180_" x="221.784" y="190.249" fill="#0686D8" width="3.589" height="3.55"/>
				</g>
				<g id="XMLID_749_">
					<rect id="XMLID_1179_" x="227.062" y="190.249" fill="#0686D8" width="3.588" height="3.55"/>
				</g>
				<g id="XMLID_748_">
					<rect id="XMLID_1178_" x="232.34" y="190.249" fill="#0686D8" width="3.588" height="3.55"/>
				</g>
				<g id="XMLID_747_">
					<rect id="XMLID_1177_" x="237.617" y="190.249" fill="#0686D8" width="3.588" height="3.55"/>
				</g>
			</g>
			<g id="XMLID_735_">
				<g id="XMLID_745_">
					<rect id="XMLID_1176_" x="190.123" y="197.665" fill="#0686D8" width="3.587" height="3.549"/>
				</g>
				<g id="XMLID_744_">
					<rect id="XMLID_1175_" x="195.399" y="197.665" fill="#0686D8" width="3.587" height="3.549"/>
				</g>
				<g id="XMLID_743_">
					<rect id="XMLID_1174_" x="200.677" y="197.665" fill="#0686D8" width="3.587" height="3.549"/>
				</g>
				<g id="XMLID_742_">
					<rect id="XMLID_1173_" x="205.953" y="197.665" fill="#0686D8" width="3.589" height="3.549"/>
				</g>
				<g id="XMLID_741_">
					<rect id="XMLID_1172_" x="211.231" y="197.665" fill="#0686D8" width="3.588" height="3.549"/>
				</g>
				<g id="XMLID_740_">
					<rect id="XMLID_1171_" x="216.508" y="197.665" fill="#0686D8" width="3.587" height="3.549"/>
				</g>
				<g id="XMLID_739_">
					<rect id="XMLID_1170_" x="221.784" y="197.665" fill="#0686D8" width="3.589" height="3.549"/>
				</g>
				<g id="XMLID_738_">
					<rect id="XMLID_1169_" x="227.062" y="197.665" fill="#0686D8" width="3.588" height="3.549"/>
				</g>
				<g id="XMLID_737_">
					<rect id="XMLID_1168_" x="232.34" y="197.665" fill="#0686D8" width="3.588" height="3.549"/>
				</g>
				<g id="XMLID_736_">
					<rect id="XMLID_1167_" x="237.617" y="197.665" fill="#0686D8" width="3.588" height="3.549"/>
				</g>
			</g>
			<g id="XMLID_724_">
				<g id="XMLID_734_">
					<rect id="XMLID_1166_" x="190.123" y="205.083" fill="#0686D8" width="3.587" height="3.549"/>
				</g>
				<g id="XMLID_733_">
					<rect id="XMLID_1165_" x="195.399" y="205.083" fill="#0686D8" width="3.587" height="3.549"/>
				</g>
				<g id="XMLID_732_">
					<rect id="XMLID_1164_" x="200.677" y="205.083" fill="#0686D8" width="3.587" height="3.549"/>
				</g>
				<g id="XMLID_731_">
					<rect id="XMLID_1163_" x="205.953" y="205.083" fill="#0686D8" width="3.589" height="3.549"/>
				</g>
				<g id="XMLID_730_">
					<rect id="XMLID_1162_" x="211.231" y="205.083" fill="#0686D8" width="3.588" height="3.549"/>
				</g>
				<g id="XMLID_729_">
					<rect id="XMLID_1161_" x="216.508" y="205.083" fill="#0686D8" width="3.587" height="3.549"/>
				</g>
				<g id="XMLID_728_">
					<rect id="XMLID_1160_" x="221.784" y="205.083" fill="#0686D8" width="3.589" height="3.549"/>
				</g>
				<g id="XMLID_727_">
					<rect id="XMLID_1159_" x="227.062" y="205.083" fill="#0686D8" width="3.588" height="3.549"/>
				</g>
				<g id="XMLID_726_">
					<rect id="XMLID_1158_" x="232.34" y="205.083" fill="#0686D8" width="3.588" height="3.549"/>
				</g>
				<g id="XMLID_725_">
					<rect id="XMLID_1157_" x="237.617" y="205.083" fill="#0686D8" width="3.588" height="3.549"/>
				</g>
			</g>
			<g id="XMLID_713_">
				<g id="XMLID_723_">
					<rect id="XMLID_1156_" x="190.123" y="212.495" fill="#0686D8" width="3.587" height="3.552"/>
				</g>
				<g id="XMLID_722_">
					<rect id="XMLID_1155_" x="195.399" y="212.495" fill="#0686D8" width="3.587" height="3.552"/>
				</g>
				<g id="XMLID_721_">
					<rect id="XMLID_1154_" x="200.677" y="212.495" fill="#0686D8" width="3.587" height="3.552"/>
				</g>
				<g id="XMLID_720_">
					<rect id="XMLID_1153_" x="205.953" y="212.495" fill="#0686D8" width="3.589" height="3.552"/>
				</g>
				<g id="XMLID_719_">
					<rect id="XMLID_1152_" x="211.231" y="212.495" fill="#0686D8" width="3.588" height="3.552"/>
				</g>
				<g id="XMLID_718_">
					<rect id="XMLID_1151_" x="216.508" y="212.495" fill="#0686D8" width="3.587" height="3.552"/>
				</g>
				<g id="XMLID_717_">
					<rect id="XMLID_1150_" x="221.784" y="212.495" fill="#0686D8" width="3.589" height="3.552"/>
				</g>
				<g id="XMLID_716_">
					<rect id="XMLID_1149_" x="227.062" y="212.495" fill="#0686D8" width="3.588" height="3.552"/>
				</g>
				<g id="XMLID_715_">
					<rect id="XMLID_1148_" x="232.34" y="212.495" fill="#0686D8" width="3.588" height="3.552"/>
				</g>
				<g id="XMLID_714_">
					<rect id="XMLID_1147_" x="237.617" y="212.495" fill="#0686D8" width="3.588" height="3.552"/>
				</g>
			</g>
			<g id="XMLID_700_">
				<g id="XMLID_712_">
					<rect id="XMLID_1146_" x="190.123" y="219.914" fill="#0686D8" width="3.587" height="3.551"/>
				</g>
				<g id="XMLID_711_">
					<rect id="XMLID_1145_" x="195.399" y="219.914" fill="#0686D8" width="3.587" height="3.551"/>
				</g>
				<g id="XMLID_709_">
					<rect id="XMLID_1144_" x="200.677" y="219.914" fill="#0686D8" width="3.587" height="3.551"/>
				</g>
				<g id="XMLID_708_">
					<rect id="XMLID_1143_" x="205.953" y="219.914" fill="#0686D8" width="3.589" height="3.551"/>
				</g>
				<g id="XMLID_707_">
					<rect id="XMLID_1142_" x="211.231" y="219.914" fill="#0686D8" width="3.588" height="3.551"/>
				</g>
				<g id="XMLID_706_">
					<rect id="XMLID_1141_" x="216.508" y="219.914" fill="#0686D8" width="3.587" height="3.551"/>
				</g>
				<g id="XMLID_705_">
					<rect id="XMLID_1140_" x="221.784" y="219.914" fill="#0686D8" width="3.589" height="3.551"/>
				</g>
				<g id="XMLID_703_">
					<rect id="XMLID_1139_" x="227.062" y="219.914" fill="#0686D8" width="3.588" height="3.551"/>
				</g>
				<g id="XMLID_702_">
					<rect id="XMLID_1138_" x="232.34" y="219.914" fill="#0686D8" width="3.588" height="3.551"/>
				</g>
				<g id="XMLID_701_">
					<rect id="XMLID_1137_" x="237.617" y="219.914" fill="#0686D8" width="3.588" height="3.551"/>
				</g>
			</g>
			<g id="XMLID_689_">
				<g id="XMLID_699_">
					<rect id="XMLID_1136_" x="190.123" y="227.331" fill="#0686D8" width="3.587" height="3.55"/>
				</g>
				<g id="XMLID_698_">
					<rect id="XMLID_1135_" x="195.399" y="227.331" fill="#0686D8" width="3.587" height="3.55"/>
				</g>
				<g id="XMLID_697_">
					<rect id="XMLID_1134_" x="200.677" y="227.331" fill="#0686D8" width="3.587" height="3.55"/>
				</g>
				<g id="XMLID_696_">
					<rect id="XMLID_1133_" x="205.953" y="227.331" fill="#0686D8" width="3.589" height="3.55"/>
				</g>
				<g id="XMLID_695_">
					<rect id="XMLID_1132_" x="211.231" y="227.331" fill="#0686D8" width="3.588" height="3.55"/>
				</g>
				<g id="XMLID_694_">
					<rect id="XMLID_1131_" x="216.508" y="227.331" fill="#0686D8" width="3.587" height="3.55"/>
				</g>
				<g id="XMLID_693_">
					<rect id="XMLID_1130_" x="221.784" y="227.331" fill="#0686D8" width="3.589" height="3.55"/>
				</g>
				<g id="XMLID_692_">
					<rect id="XMLID_1129_" x="227.062" y="227.331" fill="#0686D8" width="3.588" height="3.55"/>
				</g>
				<g id="XMLID_691_">
					<rect id="XMLID_1128_" x="232.34" y="227.331" fill="#0686D8" width="3.588" height="3.55"/>
				</g>
				<g id="XMLID_690_">
					<rect id="XMLID_1127_" x="237.617" y="227.331" fill="#0686D8" width="3.588" height="3.55"/>
				</g>
			</g>
			<g id="XMLID_678_">
				<g id="XMLID_688_">
					<rect id="XMLID_1126_" x="190.123" y="234.746" fill="#0686D8" width="3.587" height="3.55"/>
				</g>
				<g id="XMLID_687_">
					<rect id="XMLID_1125_" x="195.399" y="234.746" fill="#0686D8" width="3.587" height="3.55"/>
				</g>
				<g id="XMLID_686_">
					<rect id="XMLID_1124_" x="200.677" y="234.746" fill="#0686D8" width="3.587" height="3.55"/>
				</g>
				<g id="XMLID_685_">
					<rect id="XMLID_1123_" x="205.953" y="234.746" fill="#0686D8" width="3.589" height="3.55"/>
				</g>
				<g id="XMLID_684_">
					<rect id="XMLID_1122_" x="211.231" y="234.746" fill="#0686D8" width="3.588" height="3.55"/>
				</g>
				<g id="XMLID_683_">
					<rect id="XMLID_1121_" x="216.508" y="234.746" fill="#0686D8" width="3.587" height="3.55"/>
				</g>
				<g id="XMLID_682_">
					<rect id="XMLID_1120_" x="221.784" y="234.746" fill="#0686D8" width="3.589" height="3.55"/>
				</g>
				<g id="XMLID_681_">
					<rect id="XMLID_1119_" x="227.062" y="234.746" fill="#0686D8" width="3.588" height="3.55"/>
				</g>
				<g id="XMLID_680_">
					<rect id="XMLID_1118_" x="232.34" y="234.746" fill="#0686D8" width="3.588" height="3.55"/>
				</g>
				<g id="XMLID_679_">
					<rect id="XMLID_1117_" x="237.617" y="234.746" fill="#0686D8" width="3.588" height="3.55"/>
				</g>
			</g>
			<g id="XMLID_667_">
				<g id="XMLID_677_">
					<rect id="XMLID_1116_" x="190.123" y="242.161" fill="#0686D8" width="3.587" height="3.551"/>
				</g>
				<g id="XMLID_676_">
					<rect id="XMLID_1115_" x="195.399" y="242.161" fill="#0686D8" width="3.587" height="3.551"/>
				</g>
				<g id="XMLID_675_">
					<rect id="XMLID_1114_" x="200.677" y="242.161" fill="#0686D8" width="3.587" height="3.551"/>
				</g>
				<g id="XMLID_674_">
					<rect id="XMLID_1113_" x="205.953" y="242.161" fill="#0686D8" width="3.589" height="3.551"/>
				</g>
				<g id="XMLID_673_">
					<rect id="XMLID_1112_" x="211.231" y="242.161" fill="#0686D8" width="3.588" height="3.551"/>
				</g>
				<g id="XMLID_672_">
					<rect id="XMLID_1111_" x="216.508" y="242.161" fill="#0686D8" width="3.587" height="3.551"/>
				</g>
				<g id="XMLID_671_">
					<rect id="XMLID_1110_" x="221.784" y="242.161" fill="#0686D8" width="3.589" height="3.551"/>
				</g>
				<g id="XMLID_670_">
					<rect id="XMLID_1109_" x="227.062" y="242.161" fill="#0686D8" width="3.588" height="3.551"/>
				</g>
				<g id="XMLID_669_">
					<rect id="XMLID_1108_" x="232.34" y="242.161" fill="#0686D8" width="3.588" height="3.551"/>
				</g>
				<g id="XMLID_668_">
					<rect id="XMLID_1107_" x="237.617" y="242.161" fill="#0686D8" width="3.588" height="3.551"/>
				</g>
			</g>
			<g id="XMLID_656_">
				<g id="XMLID_666_">
					<rect id="XMLID_1106_" x="190.123" y="249.578" fill="#0686D8" width="3.587" height="3.55"/>
				</g>
				<g id="XMLID_665_">
					<rect id="XMLID_1105_" x="195.399" y="249.578" fill="#0686D8" width="3.587" height="3.55"/>
				</g>
				<g id="XMLID_664_">
					<rect id="XMLID_1104_" x="200.677" y="249.578" fill="#0686D8" width="3.587" height="3.55"/>
				</g>
				<g id="XMLID_663_">
					<rect id="XMLID_1103_" x="205.953" y="249.578" fill="#0686D8" width="3.589" height="3.55"/>
				</g>
				<g id="XMLID_662_">
					<rect id="XMLID_1102_" x="211.231" y="249.578" fill="#0686D8" width="3.588" height="3.55"/>
				</g>
				<g id="XMLID_661_">
					<rect id="XMLID_1101_" x="216.508" y="249.578" fill="#0686D8" width="3.587" height="3.55"/>
				</g>
				<g id="XMLID_660_">
					<rect id="XMLID_1100_" x="221.784" y="249.578" fill="#0686D8" width="3.589" height="3.55"/>
				</g>
				<g id="XMLID_659_">
					<rect id="XMLID_1099_" x="227.062" y="249.578" fill="#0686D8" width="3.588" height="3.55"/>
				</g>
				<g id="XMLID_658_">
					<rect id="XMLID_1098_" x="232.34" y="249.578" fill="#0686D8" width="3.588" height="3.55"/>
				</g>
				<g id="XMLID_657_">
					<rect id="XMLID_1097_" x="237.617" y="249.578" fill="#0686D8" width="3.588" height="3.55"/>
				</g>
			</g>
		</g>
		<g id="XMLID_16_">
			<g id="XMLID_44_">
				<path id="XMLID_1096_" fill="#0686D8" d="M147.409,30.424h-10.224c-0.99,0-1.793-0.804-1.793-1.794
					c0-0.991,0.803-1.794,1.793-1.794h10.224c0.99,0,1.794,0.803,1.794,1.794C149.203,29.62,148.398,30.424,147.409,30.424z"/>
			</g>
			<g id="XMLID_17_">
				<path id="XMLID_1095_" fill="#0686D8" d="M142.297,35.536c-0.991,0-1.793-0.804-1.793-1.794V23.518
					c0-0.99,0.802-1.793,1.793-1.793c0.99,0,1.794,0.803,1.794,1.793v10.224C144.091,34.731,143.287,35.536,142.297,35.536z"/>
			</g>
		</g>
		<g id="XMLID_24_">
			<g id="XMLID_26_">
				<path id="XMLID_1094_" fill="#0686D8" d="M450.583,199.458H440.36c-0.99,0-1.794-0.803-1.794-1.793s0.804-1.793,1.794-1.793
					h10.223c0.991,0,1.794,0.803,1.794,1.793S451.574,199.458,450.583,199.458z"/>
			</g>
			<g id="XMLID_25_">
				<path id="XMLID_1093_" fill="#0686D8" d="M445.471,204.569c-0.991,0-1.794-0.803-1.794-1.794v-10.222
					c0-0.989,0.803-1.793,1.794-1.793s1.794,0.804,1.794,1.793v10.222C447.265,203.767,446.462,204.569,445.471,204.569z"/>
			</g>
		</g>
		<g id="XMLID_8_">
			<g id="XMLID_11_">
				<path id="XMLID_1092_" fill="#0686D8" d="M419.092,35.536h-10.225c-0.989,0-1.793-0.804-1.793-1.794
					c0-0.991,0.804-1.794,1.793-1.794h10.225c0.99,0,1.794,0.804,1.794,1.794C420.886,34.731,420.082,35.536,419.092,35.536z"/>
			</g>
			<g id="XMLID_9_">
				<path id="XMLID_1091_" fill="#0686D8" d="M413.981,40.646c-0.991,0-1.795-0.804-1.795-1.794V28.63
					c0-0.991,0.804-1.794,1.795-1.794c0.989,0,1.794,0.803,1.794,1.794v10.222C415.775,39.842,414.971,40.646,413.981,40.646z"/>
			</g>
		</g>
		<g id="XMLID_258_">
			<g id="XMLID_261_">
				<path id="XMLID_1090_" fill="#0686D8" d="M459.94,99.814c-0.46,0-0.918-0.175-1.27-0.525c-0.7-0.701-0.7-1.836,0-2.537
					l7.229-7.229c0.701-0.701,1.836-0.701,2.536,0c0.702,0.7,0.702,1.836,0,2.536l-7.228,7.229
					C460.857,99.64,460.399,99.814,459.94,99.814z"/>
			</g>
			<g id="XMLID_259_">
				<path id="XMLID_1089_" fill="#0686D8" d="M467.17,99.814c-0.459,0-0.92-0.175-1.27-0.525l-7.229-7.229
					c-0.7-0.7-0.7-1.836,0-2.536c0.702-0.701,1.837-0.701,2.538,0l7.228,7.229c0.702,0.701,0.702,1.836,0,2.537
					C468.088,99.64,467.627,99.814,467.17,99.814z"/>
			</g>
		</g>
		<g id="XMLID_21_">
			<g id="XMLID_23_">
				<path id="XMLID_1088_" fill="#0686D8" d="M46.3,131.579c-0.458,0-0.918-0.174-1.269-0.524c-0.701-0.701-0.701-1.836,0-2.536
					l7.229-7.229c0.701-0.701,1.836-0.701,2.537,0s0.701,1.835,0,2.537l-7.229,7.229C47.218,131.405,46.759,131.579,46.3,131.579z"
					/>
			</g>
			<g id="XMLID_22_">
				<path id="XMLID_1087_" fill="#0686D8" d="M53.529,131.579c-0.458,0-0.918-0.174-1.269-0.524l-7.229-7.229
					c-0.701-0.702-0.701-1.836,0-2.537s1.836-0.701,2.537,0l7.229,7.229c0.701,0.7,0.701,1.835,0,2.536
					C54.447,131.405,53.988,131.579,53.529,131.579z"/>
			</g>
		</g>
		<g id="XMLID_403_">
			<rect id="XMLID_1086_" x="60.492" y="58.862" fill="#0686D8" width="97.384" height="3.588"/>
		</g>
		<g id="XMLID_7_">
			<rect id="XMLID_1085_" x="327.351" y="32.858" fill="#0686D8" width="75.97" height="3.587"/>
		</g>
		<g id="XMLID_3_">
			<rect id="XMLID_1084_" x="393.044" y="92.612" fill="#0686D8" width="59.663" height="3.588"/>
		</g>
		<g id="XMLID_5_">
			<rect id="XMLID_1083_" x="166.753" y="26.836" fill="#0686D8" width="41.605" height="3.588"/>
		</g>
		<g id="XMLID_4_">
			<rect id="XMLID_1077_" x="154.626" y="26.836" fill="#0686D8" width="8.539" height="3.588"/>
		</g>
		<g id="XMLID_244_">
			<circle fill="#0686D8" cx="85.586" cy="205.214" r="2.929"/>
		</g>
		<g id="XMLID_14_">
			<circle fill="#0686D8" cx="113.909" cy="100.378" r="2.928"/>
		</g>
		<g id="XMLID_18_">
			<path fill="#0686D8" d="M423.095,140.905c0,1.085-0.883,1.969-1.97,1.969c-1.084,0-1.968-0.884-1.968-1.969
				c0-1.087,0.884-1.966,1.968-1.966C422.212,138.939,423.095,139.818,423.095,140.905z"/>
		</g>
		<g id="XMLID_20_">
			<circle fill="#0686D8" cx="180.174" cy="58.689" r="1.968"/>
		</g>
		<g id="XMLID_12_">
			<circle fill="#0686D8" cx="51.546" cy="154.8" r="3.825"/>
		</g>
		<g id="XMLID_13_">
			<circle fill="#0686D8" cx="403.322" cy="213.654" r="3.823"/>
		</g>
		<g id="XMLID_19_">
			<circle fill="#0686D8" cx="319.244" cy="21.75" r="3.824"/>
		</g>
		<g id="XMLID_435_">
			<g id="XMLID_842_" opacity="0.3">
				<circle id="XMLID_49_" fill="#FFFFFF" cx="251.288" cy="168.275" r="45.381"/>
			</g>
			<g id="XMLID_512_">
				<rect id="XMLID_1075_" x="249.308" y="217.485" fill="#0686D8" width="3.588" height="21.488"/>
			</g>
			<g id="XMLID_509_">
				<path fill="#9ECFEF" d="M251.103,116.408c-28.646,0-51.869,23.223-51.869,51.868s23.223,51.867,51.869,51.867
					c28.647,0,51.868-23.222,51.868-51.868C302.971,139.627,279.75,116.408,251.103,116.408z M251.103,207.68
					c-21.765,0-39.407-17.641-39.407-39.404c0-21.763,17.643-39.405,39.407-39.405c21.761,0,39.404,17.643,39.404,39.406
					C290.507,190.039,272.863,207.68,251.103,207.68z"/>
			</g>
			<g id="XMLID_57_">
				<path id="XMLID_1002_" fill="#0686D8" d="M251.103,221.938c-29.59,0-53.664-24.072-53.664-53.661
					c0-12.793,4.576-25.181,12.885-34.886l2.725,2.335c-7.752,9.054-12.021,20.614-12.021,32.551
					c0,27.611,22.464,50.073,50.076,50.073c27.61,0,50.074-22.462,50.074-50.074c0-11.934-4.268-23.491-12.015-32.541l2.725-2.333
					c8.304,9.702,12.878,22.086,12.878,34.874C304.765,197.865,280.69,221.938,251.103,221.938z"/>
			</g>
			<g id="XMLID_506_">
				<rect x="240.855" y="232.642" fill="#9ECFEF" width="20.493" height="22.527"/>
			</g>
			<g id="XMLID_56_">
				<polygon id="XMLID_51_" fill="#0686D8" points="263.142,254.9 259.555,254.9 259.555,234.436 242.65,234.436 242.65,254.9 
					239.062,254.9 239.062,230.849 263.142,230.849 				"/>
			</g>
			<g id="XMLID_54_">
				<rect id="XMLID_50_" x="240.356" y="245.598" fill="#0686D8" width="21.489" height="3.587"/>
			</g>
			<g id="XMLID_412_">
				<path fill="#5FB0E5" d="M251.288,85.187c-19.875,0-35.985,16.111-35.985,35.985c0,19.876,35.985,60.468,35.985,60.468
					s35.986-40.592,35.986-60.468C287.274,101.298,271.162,85.187,251.288,85.187z M251.288,138.498
					c-11.527,0-20.872-9.344-20.872-20.872c0-11.527,9.345-20.871,20.872-20.871c11.528,0,20.872,9.344,20.872,20.871
					C272.16,129.154,262.816,138.498,251.288,138.498z"/>
			</g>
			<g id="XMLID_45_">
				<path id="XMLID_1078_" fill="#0686D8" d="M251.288,184.343l-1.342-1.514c-1.488-1.678-36.438-41.335-36.438-61.657
					c0-7.075,1.97-13.974,5.691-19.952l3.046,1.897c-3.368,5.407-5.15,11.651-5.15,18.055c0,16.839,27.71,50.165,34.192,57.728
					c6.481-7.562,34.192-40.893,34.192-57.728c0-18.854-15.339-34.192-34.192-34.192c-4.253,0-8.405,0.771-12.337,2.293
					l-1.294-3.347c4.347-1.68,8.934-2.533,13.631-2.533c20.833,0,37.78,16.948,37.78,37.78c0,20.322-34.952,59.979-36.438,61.657
					L251.288,184.343z M251.288,140.291c-12.498,0-22.665-10.166-22.665-22.665c0-12.498,10.167-22.666,22.665-22.666
					c12.5,0,22.667,10.168,22.667,22.666C273.955,130.125,263.788,140.291,251.288,140.291z M251.288,98.549
					c-10.52,0-19.077,8.558-19.077,19.077c0,10.521,8.558,19.078,19.077,19.078s19.078-8.558,19.078-19.078
					C270.366,107.106,261.808,98.549,251.288,98.549z M227.111,96.993l-2.536-2.537c0.976-0.976,2.014-1.906,3.088-2.769
					l2.245,2.798C228.937,95.268,227.995,96.11,227.111,96.993z"/>
			</g>
		</g>
		<g id="XMLID_481_">
			<g id="XMLID_38_">
				<rect id="XMLID_1074_" x="39.003" y="253.255" fill="#0686D8" width="6.551" height="3.586"/>
			</g>
			<g id="XMLID_41_">
				<rect id="XMLID_1073_" x="445.471" y="253.255" fill="#0686D8" width="14.47" height="3.586"/>
			</g>
			<g id="XMLID_42_">
				<rect id="XMLID_1072_" x="49.915" y="253.255" fill="#0686D8" width="391.819" height="3.586"/>
			</g>
		</g>
	</g>
</g>
</svg>
