<svg height="512pt" viewBox="0 -63 512 512" width="512pt" xmlns="http://www.w3.org/2000/svg"><path d="m0 0h512v241.328125h-512zm0 0" fill="#cae8f9"/><path d="m256 0h256v241.328125h-256zm0 0" fill="#b1dcff"/><path d="m0 156.539062h512v84.789063h-512zm0 0" fill="#82d2ff"/><path d="m215 80.640625h82v30h-82zm0 0" fill="#82d2ff"/><path d="m188.046875 386.113281-16.734375-24.894531-.207031.140625c.039062-.027344 3.894531-2.863281 5.933593-7.707031 2.558594-6.066406 1.269532-13.082032-3.9375-21.4375-10.9375-17.554688-12.246093-36.214844-3.691406-52.542969 6.195313-11.828125 15.539063-18.4375 16.582032-19.152344l16.9375 24.765625.144531-.105468c-.046875.035156-4.753907 3.476562-7.453125 9.132812-3.144532 6.597656-2.183594 13.808594 2.941406 22.039062 20.199219 32.417969 4.777344 59.480469-10.515625 69.761719zm0 0" fill="#cae8f9"/><path d="m257.421875 386.109375-1.421875-2.109375-15.320312-22.78125-.089844.0625c.640625-.5 3.96875-3.242188 5.820312-7.632812 2.558594-6.070313 1.269532-13.078126-3.941406-21.4375-10.929688-17.550782-12.238281-36.210938-3.6875-52.539063 6.199219-11.832031 15.539062-18.441406 16.589844-19.152344l.628906.921875 16.300781 23.839844.089844-.0625c-.570313.429688-4.859375 3.78125-7.390625 9.089844-3.148438 6.601562-2.191406 13.8125 2.941406 22.042968 20.1875 32.417969 4.769532 59.476563-10.519531 69.757813zm0 0" fill="#cae8f9"/><path d="m326.796875 386.113281-16.738281-24.894531-.203125.140625c.039062-.027344 3.890625-2.863281 5.933593-7.707031 2.554688-6.066406 1.265626-13.082032-3.941406-21.4375-10.933594-17.554688-12.246094-36.214844-3.691406-52.542969 6.199219-11.828125 15.542969-18.4375 16.585938-19.152344l16.933593 24.765625.148438-.105468c-.046875.035156-4.753907 3.476562-7.453125 9.132812-3.148438 6.597656-2.1875 13.808594 2.941406 22.039062 20.195312 32.417969 4.777344 59.480469-10.515625 69.761719zm0 0" fill="#b1dcff"/><path d="m256 156.539062h256v84.789063h-256zm0 0" fill="#08b7fc"/><path d="m267.941406 316.351562c20.1875 32.417969 4.769532 59.476563-10.519531 69.757813l-1.421875-2.109375v-122.558594l16.300781 23.839844.089844-.0625c-.570313.429688-4.859375 3.78125-7.390625 9.089844-3.148438 6.601562-2.191406 13.8125 2.941406 22.042968zm0 0" fill="#b1dcff"/><path d="m256 80.640625h41v30h-41zm0 0" fill="#08b7fc"/><path d="m512 141.421875v30h-59.378906v69.90625h-30v-69.90625h-59.292969v69.90625h-30v-69.90625h-333.328125v-30zm0 0" fill="#08b7fc"/><path d="m512 141.421875v30h-59.378906v69.90625h-30v-69.90625h-59.292969v69.90625h-30v-69.90625h-77.328125v-30zm0 0" fill="#006dff"/></svg>