<svg viewBox="0 -34 512 512" xmlns="http://www.w3.org/2000/svg"><path d="m173.511719 33.128906h310.121093v319.414063h-310.121093zm0 0" fill="#fc4e51"/><path d="m424.226562 33.128906h59.40625v319.414063h-59.40625zm0 0" fill="#ea3942"/><path d="m232.726562 223.753906h191.691407c6.761719 0 12.242187-5.480468 12.242187-12.242187v-87.808594c0-6.761719-5.480468-12.242187-12.242187-12.242187h-191.691407c-6.761718 0-12.242187 5.480468-12.242187 12.242187v87.808594c0 6.761719 5.480469 12.242187 12.242187 12.242187zm0 0" fill="#f3e8d7"/><g fill="#efa335"><path d="m223.617188 150.71875c-14.21875 0-25.746094-11.527344-25.746094-25.746094v-13.511718h51.492187v13.511718c0 14.21875-11.523437 25.746094-25.746093 25.746094zm0 0"/><path d="m275.113281 150.71875c-14.222656 0-25.75-11.527344-25.75-25.746094v-13.511718h51.496094v13.511718c0 14.21875-11.527344 25.746094-25.746094 25.746094zm0 0"/><path d="m326.605469 150.71875c-14.21875 0-25.746094-11.527344-25.746094-25.746094v-13.511718h51.492187v13.511718c0 14.21875-11.527343 25.746094-25.746093 25.746094zm0 0"/><path d="m378.097656 150.71875c-14.21875 0-25.746094-11.527344-25.746094-25.746094v-13.511718h51.492188v13.511718c0 14.21875-11.527344 25.746094-25.746094 25.746094zm0 0"/><path d="m429.59375 150.71875c-14.222656 0-25.75-11.527344-25.75-25.746094v-13.511718h51.496094v13.511718c0 14.21875-11.527344 25.746094-25.746094 25.746094zm0 0"/></g><path d="m441.105469 75.75c-.992188-2.484375-3.394531-4.113281-6.070313-4.113281h-216.863281c-2.671875 0-5.078125 1.628906-6.066406 4.113281l-14.234375 35.710938h257.464844zm0 0" fill="#fd8f31"/><path d="m156.675781 0h343.792969c2.011719 0 3.644531 1.632812 3.644531 3.644531v28.695313c0 2.011718-1.632812 3.640625-3.644531 3.640625h-343.792969c-2.011719 0-3.644531-1.628907-3.644531-3.640625v-28.695313c0-2.011719 1.632812-3.644531 3.644531-3.644531zm0 0" fill="#0d6e9a"/><path d="m500.46875 0h-55.761719v35.980469h55.761719c2.011719 0 3.644531-1.628907 3.644531-3.640625v-28.695313c0-2.011719-1.632812-3.644531-3.644531-3.644531zm0 0" fill="#09627a"/><path d="m.015625 309.421875v64.46875c0 5.714844 3.367187 10.894531 8.589844 13.214844l33.347656 14.824219c2.832031 1.257812 5.898437 1.910156 8.996094 1.910156h440.71875c11.230469 0 20.332031-9.105469 20.332031-20.332032v-30.699218c0-6.84375-1.867188-13.554688-5.398438-19.417969l-2.371093-3.9375c-7.867188-13.054687-20.871094-22.1875-35.820313-25.160156l-68.519531-13.628907c-13.875-2.757812-27.0625-10.261718-38.785156-18.179687l-49.65625-33.546875c-17.582031-11.875-38.308594-18.222656-59.523438-18.222656h-91.144531c-28.132812 0-55.121094 11.148437-75.050781 31.003906-14.589844 14.539062-33.089844 24.523438-53.25 28.746094l-10.777344 2.257812c-12.636719 2.644532-21.6875 13.789063-21.6875 26.699219zm0 0" fill="#0d6e9a"/><path d="m506.601562 333.390625-2.371093-3.9375c-7.867188-13.054687-20.871094-22.191406-35.820313-25.164063l-29.871094-5.9375c.578126.792969 1.136719 1.609376 1.648438 2.460938l9.925781 16.472656c1.621094 2.695313 2.480469 5.777344 2.480469 8.925782v37.269531c0 10.722656-8.691406 19.410156-19.410156 19.410156h-430.015625c1.421875 1.789063 3.265625 3.25 5.4375 4.214844l33.347656 14.824219c2.832031 1.257812 5.898437 1.910156 8.996094 1.910156h440.71875c11.230469 0 20.332031-9.105469 20.332031-20.332032v-30.699218c0-6.84375-1.867188-13.558594-5.398438-19.417969zm0 0" fill="#09627a"/><path d="m182.332031 249.871094c0-1.730469-1.398437-3.132813-3.128906-3.132813h-18.425781c-22.191406 0-43.074219 8.628907-58.800782 24.292969-8.324218 8.292969-17.652343 15.351562-27.742187 21.042969-2.308594 1.304687-3.480469 3.96875-2.851563 6.542969 2.621094 10.730468 12.234376 18.28125 23.28125 18.28125h84.539063c1.730469 0 3.132813-1.402344 3.132813-3.132813v-63.894531zm0 0" fill="#33d8dd"/><path d="m358.328125 300.738281c-3.449219-1.894531-6.820313-3.953125-10.109375-6.175781l-49.65625-33.546875c-13.773438-9.304687-30.015625-14.277344-46.636719-14.277344h-37.992187c-1.234375 0-2.230469 1-2.230469 2.230469v65.699219c0 1.230469.996094 2.230469 2.230469 2.230469h148.164062c2.003906 0 3.671875-1.609376 3.683594-3.613282.027344-5.242187-2.863281-10.019531-7.453125-12.546875zm0 0" fill="#33d8dd"/><path d="m480.851562 360.667969h31.148438v-7.859375c0-6.84375-1.867188-13.558594-5.398438-19.417969l-2.371093-3.9375c-.269531-.152344-.585938-.328125-.859375-.480469h-12.078125c-8.367188 0-15.148438 6.78125-15.148438 15.148438v11.84375c0 2.597656 2.105469 4.703125 4.707031 4.703125zm0 0" fill="#efa335"/><path d="m21.292969 360.273438h-21.292969v-30.910157h21.292969c2.417969 0 4.378906 1.960938 4.378906 4.378907v22.152343c0 2.417969-1.957031 4.378907-4.378906 4.378907zm0 0" fill="#f3e8d7"/><path d="m114.761719 375.144531c-15.847657-15.847656-41.539063-15.847656-57.382813 0-15.84375 15.84375-15.84375 41.535157 0 57.378907 15.84375 15.847656 41.535156 15.847656 57.382813 0 15.84375-15.84375 15.84375-41.535157 0-57.378907zm0 0" fill="#31363b"/><path d="m86.074219 421.367188c-4.683594 0-9.085938-1.824219-12.398438-5.132813-6.832031-6.835937-6.832031-17.957031 0-24.792969 3.3125-3.308594 7.714844-5.132812 12.398438-5.132812 4.679687 0 9.082031 1.820312 12.394531 5.132812s5.132812 7.714844 5.132812 12.394532c0 4.683593-1.820312 9.085937-5.132812 12.398437-3.3125 3.308594-7.714844 5.132813-12.394531 5.132813zm0 0" fill="#e2e2e2"/><path d="m453.6875 375.148438c-15.847656-15.847657-41.535156-15.847657-57.382812 0-15.84375 15.84375-15.84375 41.535156 0 57.378906 15.847656 15.847656 41.535156 15.847656 57.382812 0 15.84375-15.84375 15.84375-41.535156 0-57.378906zm0 0" fill="#31363b"/><path d="m425.003906 421.367188c-4.683594 0-9.085937-1.824219-12.398437-5.132813-6.832031-6.835937-6.832031-17.957031 0-24.792969 3.3125-3.308594 7.714843-5.132812 12.398437-5.132812 4.679688 0 9.082032 1.820312 12.394532 5.132812s5.132812 7.714844 5.132812 12.394532c0 4.683593-1.820312 9.085937-5.132812 12.398437-3.3125 3.308594-7.714844 5.132813-12.394532 5.132813zm0 0" fill="#e2e2e2"/><path d="m223.617188 150.71875c-14.21875 0-25.746094-11.527344-25.746094-25.746094v-13.511718h51.492187v13.511718c0 14.21875-11.523437 25.746094-25.746093 25.746094zm0 0" fill="#efa335"/><path d="m275.113281 150.71875c-14.222656 0-25.75-11.527344-25.75-25.746094v-13.511718h51.496094v13.511718c0 14.21875-11.527344 25.746094-25.746094 25.746094zm0 0" fill="#ffc064"/><path d="m326.605469 150.71875c-14.21875 0-25.746094-11.527344-25.746094-25.746094v-13.511718h51.492187v13.511718c0 14.21875-11.527343 25.746094-25.746093 25.746094zm0 0" fill="#efa335"/><path d="m378.097656 150.71875c-14.21875 0-25.746094-11.527344-25.746094-25.746094v-13.511718h51.492188v13.511718c0 14.21875-11.527344 25.746094-25.746094 25.746094zm0 0" fill="#ffc064"/><path d="m429.59375 150.71875c-14.222656 0-25.75-11.527344-25.75-25.746094v-13.511718h51.496094v13.511718c0 14.21875-11.527344 25.746094-25.746094 25.746094zm0 0" fill="#efa335"/><path d="m232.992188 342.054688h-19.328126c-4.265624 0-7.722656 3.460937-7.722656 7.726562s3.457032 7.726562 7.722656 7.726562h19.328126c4.265624 0 7.726562-3.460937 7.726562-7.726562s-3.457031-7.726562-7.726562-7.726562zm0 0" fill="#09627a"/></svg>