<svg height="512pt" viewBox="-16 0 512 512.00095" width="512pt" xmlns="http://www.w3.org/2000/svg"><path d="m10 46.109375 37.640625 44.480469h385.171875l38.1875-44.480469zm0 0" fill="#f0f0fa"/><path d="m240.226562 302.785156c-9.648437 0-18.800781-4.277344-24.992187-11.679687l-167.59375-200.515625h385.171875l-167.597656 200.515625c-6.1875 7.402343-15.339844 11.679687-24.988282 11.679687zm0 0" fill="#c8f5ff"/><path d="m310.265625 486.066406-54.539063-32.695312v-154.515625c-4.707031 2.550781-10.023437 3.929687-15.5 3.929687-5.265624 0-10.382812-1.28125-14.949218-3.644531v154.230469l-54.539063 32.695312c-7.460937 4.472656-4.289062 15.933594 4.410157 15.933594h130.707031c8.699219 0 11.871093-11.460938 4.410156-15.933594zm0 0" fill="#f0f0fa"/><path d="m241.976562 202.207031c0 17.667969-14.324218 31.992188-31.992187 31.992188s-31.992187-14.324219-31.992187-31.992188 14.324218-31.992187 31.992187-31.992187 31.992187 14.324218 31.992187 31.992187zm0 0" fill="#acd670"/><path d="m272.886719 297.515625 167.546875-200.453125 38.152344-44.441406c2.546874-2.964844 3.132812-7.136719 1.5-10.6875-1.628907-3.546875-5.179688-5.824219-9.085938-5.824219h-385.417969l-26.867187-32.484375c-3.523438-4.253906-9.828125-4.851562-14.082032-1.328125-4.253906 3.519531-4.851562 9.820313-1.332031 14.078125l16.324219 19.734375h-49.625c-3.894531 0-7.433594 2.257813-9.070312 5.789063-1.640626 3.535156-1.078126 7.695312 1.4375 10.667968l37.597656 44.433594v.003906l167.597656 200.515625c2.289062 2.738281 4.890625 5.132813 7.710938 7.179688v143.011719l-49.679688 29.777343c-7.25 4.347657-10.605469 12.742188-8.351562 20.890625 2.257812 8.148438 9.449218 13.621094 17.902343 13.621094h130.707031c8.453126 0 15.648438-5.472656 17.90625-13.621094 2.253907-8.144531-1.101562-16.539062-8.355468-20.890625l-49.679688-29.777343v-143.410157c2.617188-1.960937 5.027344-4.222656 7.164063-6.785156zm176.347656-241.40625-21.015625 24.480469h-305.84375l-20.25-24.480469zm-373.066406-.003906 20.253906 24.484375h-44.144531l-20.714844-24.484375zm-7.136719 44.484375h43.933594l63.335937 76.570312c-5.21875 6.996094-8.308593 15.667969-8.308593 25.046875 0 23.15625 18.835937 41.996094 41.992187 41.996094 6.554687 0 12.765625-1.511719 18.296875-4.203125l24.953125 30.164062c1.976563 2.390626 4.832031 3.625 7.710937 3.625 2.246094 0 4.503907-.753906 6.367188-2.296874 4.257812-3.519532 4.851562-9.820313 1.332031-14.078126l-24.960937-30.175781c5.207031-6.996093 8.292968-15.65625 8.292968-25.03125 0-23.152343-18.835937-41.992187-41.992187-41.992187-6.546875 0-12.746094 1.507812-18.277344 4.191406l-52.785156-63.816406h272.5l-153.878906 184.101562c-4.214844 5.042969-10.578125 8.039063-17.148438 8.09375-6.683593.054688-13.203125-2.972656-17.484375-8.09375zm140.953125 123.613281c-12.128906 0-21.992187-9.867187-21.992187-21.996094 0-12.125 9.863281-21.992187 21.992187-21.992187s21.992187 9.867187 21.992187 21.992187c0 12.128907-9.863281 21.996094-21.992187 21.996094zm35.742187 88.222656v140.945313c0 3.515625 1.84375 6.773437 4.859376 8.578125l50.128906 30.050781h-120.425782l50.128907-30.050781c3.011719-1.808594 4.855469-5.0625 4.855469-8.578125v-140.878906c3.46875.402343 6.992187.386718 10.453124-.066407zm0 0"/><path d="m297.449219 195.320312c1.867187 1.550782 4.136719 2.308594 6.386719 2.308594 2.871093 0 5.71875-1.226562 7.695312-3.609375l45.328125-54.550781c.109375-.085938.222656-.175781.332031-.269531 4.210938-3.570313 4.730469-9.878907 1.160156-14.09375-1.941406-2.289063-4.777343-3.605469-7.78125-3.605469-3.007812 0-5.847656 1.320312-7.84375 3.683594l-46.578124 56.054687c-3.527344 4.25-2.945313 10.554688 1.300781 14.082031zm0 0"/><path d="m272.878906 229c3.851563 1.605469 8.433594.578125 11.226563-2.515625 2.886719-3.199219 3.398437-7.976563 1.257812-11.714844-1.933593-3.382812-5.828125-5.339843-9.695312-4.945312-4.199219.425781-7.730469 3.566406-8.699219 7.667969-1.105469 4.695312 1.445312 9.679687 5.910156 11.507812zm0 0"/></svg>