<svg height="464pt" viewBox="0 -40 464 464" width="464pt" xmlns="http://www.w3.org/2000/svg"><path d="m16 32h232v320h-232zm0 0" fill="#6cbbc7"/><path d="m248 32h216v320h-216zm0 0" fill="#e6e6e6"/><path d="m16 32h232v112h-232zm0 0" fill="#c4e4e9"/><path d="m280 352v-92.6875c0-7.242188 2.878906-14.191406 8-19.3125s8-12.070312 8-19.3125v-28.6875h32v28.6875c0 7.242188 2.878906 14.191406 8 19.3125s8 12.070312 8 19.3125v92.6875zm0 0" fill="#c4e4e9"/><path d="m368 352v-92.6875c0-7.242188 2.878906-14.191406 8-19.3125s8-12.070312 8-19.3125v-28.6875h32v28.6875c0 7.242188 2.878906 14.191406 8 19.3125s8 12.070312 8 19.3125v92.6875zm0 0" fill="#c4e4e9"/><g fill="#ffa900"><path d="m280 184h64v16h-64zm0 0"/><path d="m368 184h64v16h-64zm0 0"/><path d="m176 80h40v64h-40zm0 0"/><path d="m112 80h40v64h-40zm0 0"/><path d="m48 80h40v64h-40zm0 0"/></g><path d="m48 352v-92.6875c0-7.242188 2.878906-14.191406 8-19.3125s8-12.070312 8-19.3125v-28.6875h32v28.6875c0 7.242188 2.878906 14.191406 8 19.3125s8 12.070312 8 19.3125v92.6875zm0 0" fill="#c4e4e9"/><path d="m48 184h64v16h-64zm0 0" fill="#ffa900"/><path d="m136 288h40v64h-40zm0 0" fill="#ccc"/><path d="m176 288h40v64h-40zm0 0" fill="#e6e6e6"/><path d="m0 0h264v32h-264zm0 0" fill="#518c95"/><path d="m0 352h264v32h-264zm0 0" fill="#518c95"/><path d="m48 288h64v32h-64zm0 0" fill="#ffa900"/><path d="m280 288h64v32h-64zm0 0" fill="#ffa900"/><path d="m368 288h64v32h-64zm0 0" fill="#ffa900"/><path d="m16 104h232v16h-232zm0 0" fill="#6cbbc7"/><path d="m248 288h216v16h-216zm0 0" fill="#6cbbc7"/></svg>