<?xml version="1.0" encoding="iso-8859-1"?>
<!-- Generator: Adobe Illustrator 19.0.0, SVG Export Plug-In . SVG Version: 6.00 Build 0)  -->
<svg version="1.1" id="Layer_1" xmlns="http://www.w3.org/2000/svg" xmlns:xlink="http://www.w3.org/1999/xlink" x="0px" y="0px"
	 viewBox="0 0 512 512" style="enable-background:new 0 0 512 512;" xml:space="preserve">
<path style="fill:#E6563A;" d="M495.304,340.148h-83.478v133.565h83.478c9.217,0,16.696-7.473,16.696-16.696V356.844
	C512,347.621,504.521,340.148,495.304,340.148z"/>
<path style="fill:#FF9F19;" d="M50.087,340.148C22.468,340.148,0,362.616,0,390.235v33.391c0,27.619,22.468,50.087,50.087,50.087
	h150.261V340.148H50.087z"/>
<g>
	<path style="fill:#FDCD99;" d="M474.601,308.094c-3.848,0-7.722-1.223-11.006-3.755c-7.886-6.082-9.347-17.408-3.261-25.294
		c19.827-25.701,19.827-69.136,0-94.837c-30.043-38.945-30.043-99.957,0-138.902c6.087-7.897,17.414-9.337,25.294-3.261
		c7.88,6.082,9.347,17.408,3.261,25.294c-19.831,25.701-19.831,69.136,0,94.837c30.043,38.945,30.043,99.957,0,138.902
		C485.335,305.681,479.998,308.094,474.601,308.094z"/>
	<path style="fill:#FDCD99;" d="M407.818,308.094c-3.848,0-7.722-1.223-11.006-3.755c-7.886-6.082-9.347-17.408-3.261-25.294
		c19.831-25.701,19.831-69.136,0-94.837c-30.043-38.945-30.043-99.957,0-138.902c6.076-7.886,17.408-9.347,25.294-3.261
		c7.886,6.082,9.347,17.408,3.261,25.294c-19.831,25.701-19.831,69.136,0,94.837c30.043,38.945,30.043,99.957,0,138.902
		C418.558,305.681,413.215,308.094,407.818,308.094z"/>
</g>
<rect x="166.957" y="340.146" style="fill:#EDF0F2;" width="278.261" height="133.565"/>
<rect x="256" y="340.146" style="fill:#DAE1E6;" width="189.217" height="133.565"/>
<g>
</g>
<g>
</g>
<g>
</g>
<g>
</g>
<g>
</g>
<g>
</g>
<g>
</g>
<g>
</g>
<g>
</g>
<g>
</g>
<g>
</g>
<g>
</g>
<g>
</g>
<g>
</g>
<g>
</g>
</svg>
