<?xml version="1.0" encoding="iso-8859-1"?>
<!-- Generator: Adobe Illustrator 19.0.0, SVG Export Plug-In . SVG Version: 6.00 Build 0)  -->
<svg version="1.1" id="Layer_1" xmlns="http://www.w3.org/2000/svg" xmlns:xlink="http://www.w3.org/1999/xlink" x="0px" y="0px"
	 viewBox="0 0 511.999 511.999" style="enable-background:new 0 0 511.999 511.999;" xml:space="preserve">
<path style="fill:#77757E;" d="M151.733,374.446h-41.381c-7.434,0-13.516-6.082-13.516-13.516V150.376
	c0-7.434,6.082-13.516,13.516-13.516h41.381c7.434,0,13.516,6.082,13.516,13.516V360.93
	C165.25,368.364,159.167,374.446,151.733,374.446z"/>
<path style="fill:#ACAAB1;" d="M83.32,346.089H58.271c-7.434,0-13.516-6.082-13.516-13.516v-153.84
	c0-7.434,6.082-13.516,13.516-13.516H83.32c7.434,0,13.516,6.082,13.516,13.516v153.84C96.836,340.007,90.754,346.089,83.32,346.089
	z"/>
<rect y="225.427" style="fill:#3E3B43;" width="44.759" height="60.448"/>
<path style="fill:#77757E;" d="M360.267,136.86h41.381c7.434,0,13.516,6.082,13.516,13.516V360.93
	c0,7.434-6.082,13.516-13.516,13.516h-41.381c-7.434,0-13.516-6.082-13.516-13.516V150.376
	C346.751,142.942,352.833,136.86,360.267,136.86z"/>
<path style="fill:#ACAAB1;" d="M428.68,165.217h25.049c7.434,0,13.516,6.082,13.516,13.516v153.84
	c0,7.434-6.082,13.516-13.516,13.516H428.68c-7.434,0-13.516-6.082-13.516-13.516v-153.84
	C415.164,171.299,421.246,165.217,428.68,165.217z"/>
<g>
	<rect x="467.24" y="225.427" style="fill:#3E3B43;" width="44.759" height="60.448"/>
	<rect x="165.25" y="225.427" style="fill:#3E3B43;" width="181.5" height="60.448"/>
</g>
<g>
	<rect y="263.116" style="fill:#2F2D30;" width="44.759" height="22.762"/>
	<rect x="467.24" y="263.116" style="fill:#2F2D30;" width="44.759" height="22.762"/>
	<rect x="165.25" y="263.116" style="fill:#2F2D30;" width="181.5" height="22.762"/>
</g>
<g>
	<path style="fill:#57545C;" d="M151.733,374.446h-41.381c-7.434,0-13.516-6.082-13.516-13.516v-49.208
		c0-7.434,6.082-13.516,13.516-13.516h41.381c7.434,0,13.516,6.082,13.516,13.516v49.208
		C165.25,368.364,159.167,374.446,151.733,374.446z"/>
	<path style="fill:#57545C;" d="M401.648,375.139h-41.381c-7.434,0-13.516-6.082-13.516-13.516v-49.208
		c0-7.434,6.082-13.516,13.516-13.516h41.381c7.434,0,13.516,6.082,13.516,13.516v49.208
		C415.164,369.057,409.081,375.139,401.648,375.139z"/>
</g>
<g>
	<path style="opacity:0.43;fill:#77757E;enable-background:new    ;" d="M428.68,284.747h25.049c7.434,0,13.516,6.082,13.516,13.516
		v34.31c0,7.434-6.082,13.516-13.516,13.516H428.68c-7.434,0-13.516-6.082-13.516-13.516v-34.31
		C415.164,290.829,421.246,284.747,428.68,284.747z"/>
	<path style="opacity:0.43;fill:#77757E;enable-background:new    ;" d="M58.271,284.747H83.32c7.434,0,13.516,6.082,13.516,13.516
		v34.31c0,7.434-6.082,13.516-13.516,13.516H58.271c-7.434,0-13.516-6.082-13.516-13.516v-34.31
		C44.755,290.829,50.837,284.747,58.271,284.747z"/>
</g>
<g>
</g>
<g>
</g>
<g>
</g>
<g>
</g>
<g>
</g>
<g>
</g>
<g>
</g>
<g>
</g>
<g>
</g>
<g>
</g>
<g>
</g>
<g>
</g>
<g>
</g>
<g>
</g>
<g>
</g>
</svg>
