<?xml version="1.0" encoding="iso-8859-1"?>
<!-- Generator: Adobe Illustrator 19.0.0, SVG Export Plug-In . SVG Version: 6.00 Build 0)  -->
<svg version="1.1" id="Capa_1" xmlns="http://www.w3.org/2000/svg" xmlns:xlink="http://www.w3.org/1999/xlink" x="0px" y="0px"
	 viewBox="0 0 512.001 512.001" style="enable-background:new 0 0 512.001 512.001;" xml:space="preserve">
<rect x="418.82" y="173.81" style="fill:#E1EFFB;" width="24.16" height="297.05"/>
<rect x="430.9" y="173.81" style="fill:#CCDFED;" width="12.08" height="297.05"/>
<g>
	<path style="fill:#2DE8E8;" d="M500.652,209.803H354.434c-6.198,0-11.222-5.024-11.222-11.222V52.363
		c0-6.198,5.024-11.222,11.222-11.222h146.218c6.198,0,11.222,5.024,11.222,11.222V198.58
		C511.874,204.778,506.849,209.803,500.652,209.803z"/>
	<path style="fill:#2DE8E8;" d="M500.651,41.141H354.434c-6.198,0-11.222,5.024-11.222,11.222V198.58
		c0,6.198,5.024,11.222,11.222,11.222h146.218c6.198,0,11.222-5.024,11.222-11.222V52.363
		C511.874,46.165,506.849,41.141,500.651,41.141z"/>
</g>
<path style="fill:#11B9C1;" d="M500.651,41.141h-28.934h-3.932c0.023,0.293,0.044,0.586,0.044,0.884v146.218
	c0,6.198-5.024,11.222-11.222,11.222H343.256c0.094,1.203,0.387,2.348,0.83,3.415h-0.018c0.349,0.841,0.802,1.626,1.335,2.349
	c0.029,0.04,0.06,0.079,0.09,0.119c0.167,0.221,0.343,0.435,0.526,0.643c0.038,0.043,0.075,0.087,0.114,0.13
	c0.211,0.233,0.43,0.459,0.661,0.673c0.004,0.004,0.008,0.008,0.011,0.011c0.241,0.224,0.492,0.436,0.752,0.639
	c0.04,0.031,0.083,0.06,0.123,0.091c0.21,0.159,0.425,0.31,0.646,0.454c0.076,0.05,0.153,0.097,0.231,0.145
	c0.199,0.123,0.402,0.239,0.61,0.35c0.08,0.043,0.158,0.086,0.239,0.127c0.257,0.13,0.52,0.25,0.788,0.36
	c0.027,0.011,0.054,0.025,0.081,0.036c0.296,0.118,0.599,0.222,0.906,0.315c0.087,0.026,0.175,0.047,0.262,0.071
	c0.224,0.062,0.451,0.118,0.68,0.166c0.108,0.023,0.217,0.043,0.326,0.063c0.225,0.04,0.453,0.073,0.683,0.099
	c0.102,0.012,0.202,0.026,0.305,0.035c0.329,0.029,0.661,0.048,0.997,0.048h146.218c6.198,0,11.222-5.024,11.222-11.222V52.363
	C511.874,46.165,506.849,41.141,500.651,41.141z"/>
<path style="fill:#61AFF7;" d="M0,331.906v72.712c0,5.716,3.366,10.895,8.589,13.217l33.35,14.822
	c2.832,1.259,5.897,1.909,8.996,1.909h440.733c11.229,0,20.332-9.103,20.332-20.332v-38.942c0-6.843-1.866-13.556-5.398-19.417
	l-2.372-3.936c-7.867-13.056-20.871-22.191-35.821-25.164l-68.522-13.627c-13.876-2.76-27.063-10.262-38.786-18.182l-49.658-33.547
	c-17.58-11.876-38.311-18.223-59.527-18.223h-91.147c-28.134,0-55.121,11.149-75.051,31.005l0,0
	c-14.592,14.537-33.091,24.524-53.251,28.746l-10.779,2.258C9.051,307.852,0,318.995,0,331.906z"/>
<path style="fill:#55A2F0;" d="M506.602,355.875l-2.372-3.936c-7.867-13.056-20.871-22.191-35.821-25.164l-20.076-3.992
	c4.085,3.612,7.646,7.847,10.518,12.612l2.372,3.936c3.532,5.861,5.398,12.574,5.398,19.417v38.942
	c0,11.229-9.103,20.332-20.332,20.332H9.009l32.93,14.636c2.832,1.259,5.897,1.909,8.996,1.909h440.734
	c11.229,0,20.332-9.103,20.332-20.332v-38.942C512,368.449,510.134,361.736,506.602,355.875z"/>
<path style="fill:#21D8DE;" d="M63.807,327.352c0-4.489,2.502-8.598,6.486-10.667c11.604-6.025,22.281-13.813,31.674-23.171
	c15.725-15.665,36.608-24.293,58.802-24.293h91.147c16.622,0,32.864,4.972,46.638,14.277l49.659,33.548
	c3.29,2.223,6.663,4.282,10.11,6.177c4.568,2.512,7.454,7.259,7.454,12.472l0,0c0,2.035-1.65,3.685-3.685,3.685H75.836
	C69.192,339.381,63.807,333.996,63.807,327.352L63.807,327.352z"/>
<g>
	<circle style="fill:#2C5871;" cx="429.51" cy="428.56" r="42.3"/>
	<circle style="fill:#2C5871;" cx="84.33" cy="428.56" r="42.3"/>
</g>
<path style="fill:#1D4859;" d="M114.243,458.47c16.519-16.519,16.519-43.302,0-59.821L54.422,458.47
	C70.941,474.989,97.724,474.989,114.243,458.47z"/>
<circle style="fill:#E1EFFB;" cx="84.33" cy="428.56" r="15.286"/>
<path style="fill:#1D4859;" d="M459.418,458.47c16.519-16.519,16.519-43.302,0-59.821l-59.821,59.821
	C416.117,474.989,442.899,474.989,459.418,458.47z"/>
<circle style="fill:#E1EFFB;" cx="429.51" cy="428.56" r="15.286"/>
<g>
	<path style="fill:#FFB125;" d="M288.847,137.442c-1.921,0-3.843-0.733-5.309-2.199c-21.459-21.46-49.992-33.278-80.341-33.278
		s-58.881,11.819-80.341,33.278c-2.932,2.932-7.685,2.932-10.617,0s-2.932-7.685,0-10.617
		c24.296-24.296,56.598-37.676,90.958-37.676s66.663,13.38,90.959,37.676c2.932,2.932,2.932,7.685,0,10.617
		C292.689,136.709,290.767,137.442,288.847,137.442z"/>
	<path style="fill:#FFB125;" d="M257.873,168.416c-1.921,0-3.843-0.733-5.309-2.199c-27.222-27.221-71.513-27.221-98.735,0
		c-2.932,2.932-7.685,2.932-10.617,0s-2.932-7.685,0-10.617c33.075-33.076,86.894-33.076,119.97,0c2.932,2.932,2.932,7.685,0,10.617
		C261.716,167.683,259.794,168.416,257.873,168.416z"/>
	<path style="fill:#FFB125;" d="M227.391,198.898c-1.921,0-3.843-0.733-5.309-2.199c-10.414-10.413-27.357-10.413-37.77,0
		c-2.932,2.932-7.685,2.933-10.617,0c-2.932-2.932-2.932-7.685,0-10.617c16.267-16.267,42.737-16.267,59.005,0
		c2.932,2.932,2.932,7.685,0,10.617C231.233,198.165,229.312,198.898,227.391,198.898z"/>
</g>
<path style="fill:#FFFFFF;" d="M401.018,97.225c0-2.688,2.431-5.12,6.271-5.12h25.724c16.254,0,29.052,7.808,29.052,28.797v0.767
	c0,20.989-13.182,29.052-30.076,29.052h-14.335v29.692c0,3.456-4.223,5.248-8.319,5.248c-4.223,0-8.319-1.792-8.319-5.248V97.225
	H401.018z M417.655,106.695v30.973h14.335c8.319,0,13.438-4.736,13.438-14.719v-1.535c0-9.983-5.119-14.719-13.438-14.719
	C431.99,106.695,417.655,106.695,417.655,106.695z"/>
<rect x="180.09" y="265.7" style="fill:#61AFF7;" width="15.02" height="77.21"/>
<g>
</g>
<g>
</g>
<g>
</g>
<g>
</g>
<g>
</g>
<g>
</g>
<g>
</g>
<g>
</g>
<g>
</g>
<g>
</g>
<g>
</g>
<g>
</g>
<g>
</g>
<g>
</g>
<g>
</g>
</svg>
