<svg height="464pt" viewBox="0 0 464 464" width="464pt" xmlns="http://www.w3.org/2000/svg"><path d="m0 464v-124c0-41.972656 34.027344-76 76-76s76-34.027344 76-76v-112c0-41.972656 34.027344-76 76-76h236v464zm0 0" fill="#6cbbc7"/><path d="m0 464h32v-124c0-24.300781 19.699219-44 44-44 59.648438 0 108-48.351562 108-108v-112c0-24.300781 19.699219-44 44-44h236v-32h-236c-41.972656 0-76 34.027344-76 76v112c0 41.972656-34.027344 76-76 76s-76 34.027344-76 76zm0 0" fill="#518c95"/><path d="m235.710938 112.398438-52.109376-52.109376c-11.996093-11.996093-30.035156-15.582031-45.707031-9.089843-15.671875 6.488281-25.890625 21.78125-25.894531 38.746093v22.648438c-12.085938-2.097656-24.476562 1.328125-33.769531 9.335938-9.292969 8.003906-14.511719 19.75-14.230469 32.015624v86.054688h16v-86.054688c-.078125-7.96875 3.546875-15.523437 9.8125-20.449218 6.265625-4.921875 14.464844-6.65625 22.1875-4.695313v47.199219h16v-36.6875l48.398438 48.398438c4.882812 4.855468 7.617187 11.460937 7.601562 18.34375v89.945312h16v-45.335938l32-42.664062v24h16v-89.945312c.03125-11.128907-4.394531-21.808594-12.289062-29.65625zm-35.710938 111.601562v-17.945312c.03125-11.128907-4.394531-21.808594-12.289062-29.65625l-52.109376-52.109376c-2.300781-2.246093-4.851562-4.222656-7.601562-5.890624v-28.453126c0-10.492187 6.320312-19.953124 16.015625-23.96875 9.695313-4.015624 20.851563-1.796874 28.273437 5.625l52.117188 52.117188c4.878906 4.855469 7.609375 11.457031 7.59375 18.335938v39.273437zm0 0" fill="#e6e6e6"/></svg>