<?xml version="1.0" encoding="iso-8859-1"?>
<!-- Generator: Adobe Illustrator 19.0.0, SVG Export Plug-In . SVG Version: 6.00 Build 0)  -->
<svg version="1.1" id="Capa_1" xmlns="http://www.w3.org/2000/svg" xmlns:xlink="http://www.w3.org/1999/xlink" x="0px" y="0px"
	 viewBox="0 0 512 512" style="enable-background:new 0 0 512 512;" xml:space="preserve">
<path style="fill:#FFE0B3;" d="M438.154,423.385c-27.146,0-49.231-22.085-49.231-49.231c0-84.152-68.462-152.615-152.615-152.615
	c-8.157,0-14.769,6.613-14.769,14.769v59.077c0,8.157,6.613,14.769,14.769,14.769c35.29,0,64,28.71,64,64
	c0,76.008,61.838,137.846,137.846,137.846h59.077c8.157,0,14.769-6.613,14.769-14.769C512,456.512,478.874,423.385,438.154,423.385z
	"/>
<path style="fill:#5E6168;" d="M14.769,280.615C6.613,280.615,0,287.228,0,295.385v201.846C0,505.387,6.613,512,14.769,512
	s14.769-6.613,14.769-14.769V295.385C29.538,287.228,22.926,280.615,14.769,280.615z"/>
<path style="fill:#3C3F44;" d="M236.308,280.615c-8.157,0-14.769,6.613-14.769,14.769v201.846c0,8.157,6.613,14.769,14.769,14.769
	s14.769-6.613,14.769-14.769V295.385C251.077,287.228,244.464,280.615,236.308,280.615z"/>
<path style="fill:#FF415B;" d="M164.923,280.615c-8.157,0-14.769,6.613-14.769,14.769v55.136h-49.231v-55.136
	c0-8.157-6.613-14.769-14.769-14.769s-14.769,6.613-14.769,14.769v201.846c0,8.157,6.613,14.769,14.769,14.769h78.769
	c8.157,0,14.769-6.613,14.769-14.769V295.385C179.692,287.228,173.08,280.615,164.923,280.615z M100.923,414.52v-34.462h49.231
	v34.462H100.923z M100.923,444.059h49.231v38.403h-49.231V444.059z"/>
<path style="fill:#D10050;" d="M164.923,280.615c-8.157,0-14.769,6.613-14.769,14.769v55.136h-24.615v29.538h24.615v34.462h-24.615
	v29.538h24.615v38.403h-24.615V512h39.385c8.157,0,14.769-6.613,14.769-14.769V295.385
	C179.692,287.228,173.08,280.615,164.923,280.615z"/>
<path style="fill:#F9BC35;" d="M236.308,123.077H14.769C6.613,123.077,0,129.69,0,137.846v157.538
	c0,8.157,6.613,14.769,14.769,14.769h221.538c8.157,0,14.769-6.613,14.769-14.769V137.846
	C251.077,129.69,244.464,123.077,236.308,123.077z"/>
<path style="fill:#FF9100;" d="M236.308,123.077H125.538v187.077h110.769c8.157,0,14.769-6.613,14.769-14.769V137.846
	C251.077,129.69,244.464,123.077,236.308,123.077z"/>
<path style="fill:#FF415B;" d="M247.286,127.966L136.517,4.889C133.716,1.777,129.725,0,125.538,0
	c-4.187,0-8.177,1.777-10.977,4.889L3.792,127.966c-3.902,4.335-4.887,10.561-2.514,15.889c2.372,5.329,7.658,8.761,13.491,8.761
	h221.538c5.833,0,11.119-3.432,13.491-8.76C252.172,138.527,251.187,132.302,247.286,127.966z"/>
<path style="fill:#D10050;" d="M236.308,152.615c5.833,0,11.119-3.432,13.491-8.76c2.373-5.328,1.388-11.553-2.514-15.889
	L136.516,4.89c-2.8-3.112-6.791-4.89-10.977-4.89v152.615H236.308z"/>
<path style="fill:#FFE0B3;" d="M135.385,172.308h-19.692c-24.431,0-44.308,19.876-44.308,44.308s19.876,44.308,44.308,44.308h19.692
	c24.431,0,44.308-19.876,44.308-44.308S159.817,172.308,135.385,172.308z"/>
<g>
	<path style="fill:#EFCC9E;" d="M135.385,172.308h-9.846v88.615h9.846c24.431,0,44.308-19.876,44.308-44.308
		S159.817,172.308,135.385,172.308z"/>
	<path style="fill:#EFCC9E;" d="M438.154,423.385c-27.146,0-49.231-22.085-49.231-49.231c0-28.946-8.101-56.035-22.154-79.122
		v197.007C387.604,504.702,412.043,512,438.154,512h59.077c8.157,0,14.769-6.613,14.769-14.769
		C512,456.512,478.874,423.385,438.154,423.385z"/>
</g>
<g>
</g>
<g>
</g>
<g>
</g>
<g>
</g>
<g>
</g>
<g>
</g>
<g>
</g>
<g>
</g>
<g>
</g>
<g>
</g>
<g>
</g>
<g>
</g>
<g>
</g>
<g>
</g>
<g>
</g>
</svg>
