<?xml version="1.0" encoding="iso-8859-1"?>
<!-- Generator: Adobe Illustrator 19.0.0, SVG Export Plug-In . SVG Version: 6.00 Build 0)  -->
<svg version="1.1" id="Capa_1" xmlns="http://www.w3.org/2000/svg" xmlns:xlink="http://www.w3.org/1999/xlink" x="0px" y="0px"
	 viewBox="0 0 472 472" style="enable-background:new 0 0 472 472;" xml:space="preserve">
<path style="fill:#F6BF9B;" d="M68,0h336c35.346,0,64,28.654,64,64v176c0,35.346-28.654,64-64,64H68c-35.346,0-64-28.654-64-64V64
	C4,28.654,32.654,0,68,0z"/>
<g>
	<path style="fill:#FDBD40;" d="M220,336h32v128h-32V336z"/>
	<path style="fill:#FDBD40;" d="M140,456h192v16H140V456z"/>
</g>
<path style="fill:#FCF05A;" d="M196,272h80v64h-80V272z"/>
<g>
	<path style="fill:#E9686A;" d="M68,104H36c-4.418,0-8,3.582-8,8v64c0,4.418,3.582,8,8,8s8-3.582,8-8v-24h3.056l13.784,27.576
		c1.975,3.954,6.782,5.559,10.736,3.584c3.954-1.975,5.559-6.782,3.584-10.736L64.944,152H68c4.418,0,8-3.582,8-8v-32
		C76,107.582,72.418,104,68,104L68,104z M44,120h16v16H44V120z"/>
	<path style="fill:#E9686A;" d="M420,104h-16c-4.418,0-8,3.582-8,8v64c0,4.418,3.582,8,8,8h16c13.255,0,24-10.745,24-24v-32
		C444,114.745,433.255,104,420,104z M428,160c0,4.418-3.582,8-8,8h-8v-48h8c4.418,0,8,3.582,8,8V160z"/>
	<path style="fill:#E9686A;" d="M276,104h-32c-4.418,0-8,3.582-8,8v64c0,4.418,3.582,8,8,8s8-3.582,8-8v-24h3.056l13.744,27.576
		c1.975,3.954,6.782,5.559,10.736,3.584c3.954-1.975,5.559-6.782,3.584-10.736l0,0L272.944,152H276c4.418,0,8-3.582,8-8v-32
		C284,107.582,280.418,104,276,104L276,104z M252,120h16v16h-16V120z"/>
	<path style="fill:#E9686A;" d="M116,120c4.418,0,8-3.582,8-8s-3.582-8-8-8H92c-4.418,0-8,3.582-8,8v64c0,4.418,3.582,8,8,8h24
		c4.418,0,8-3.582,8-8s-3.582-8-8-8h-16v-16h8c4.418,0,8-3.582,8-8s-3.582-8-8-8h-8v-16H116z"/>
	<path style="fill:#E9686A;" d="M220,120c4.418,0,8-3.582,8-8s-3.582-8-8-8h-24c-4.418,0-8,3.582-8,8v64c0,4.418,3.582,8,8,8h24
		c4.418,0,8-3.582,8-8s-3.582-8-8-8h-16v-16h8c4.418,0,8-3.582,8-8s-3.582-8-8-8h-8v-16H220z"/>
	<path style="fill:#E9686A;" d="M380,120c4.418,0,8-3.582,8-8s-3.582-8-8-8h-24c-4.418,0-8,3.582-8,8v64c0,4.418,3.582,8,8,8h24
		c4.418,0,8-3.582,8-8s-3.582-8-8-8h-16v-16h8c4.418,0,8-3.582,8-8s-3.582-8-8-8h-8v-16H380z"/>
	<path style="fill:#E9686A;" d="M172,120c4.418,0,8-3.582,8-8s-3.582-8-8-8h-32c-4.418,0-8,3.582-8,8v32c0,4.418,3.582,8,8,8h24v16
		h-24c-4.418,0-8,3.582-8,8s3.582,8,8,8h32c4.418,0,8-3.582,8-8v-32c0-4.418-3.582-8-8-8h-24v-16H172z"/>
	<path style="fill:#E9686A;" d="M333.936,104.24c-4.286-1.068-8.626,1.539-9.696,5.824L316,143.016l-8.24-32.952
		c-0.97-4.311-5.25-7.019-9.561-6.049c-4.311,0.97-7.019,5.25-6.049,9.561c0.027,0.121,0.057,0.241,0.09,0.36l16,64
		c1.074,4.286,5.419,6.889,9.705,5.815c2.863-0.717,5.098-2.953,5.815-5.815l16-64C340.828,109.65,338.221,105.31,333.936,104.24z"
		/>
</g>
<g>
</g>
<g>
</g>
<g>
</g>
<g>
</g>
<g>
</g>
<g>
</g>
<g>
</g>
<g>
</g>
<g>
</g>
<g>
</g>
<g>
</g>
<g>
</g>
<g>
</g>
<g>
</g>
<g>
</g>
</svg>
