<svg height="512pt" viewBox="-16 0 512 512" width="512pt" xmlns="http://www.w3.org/2000/svg"><path d="m267.300781 505.402344c-2.699219 4.195312-7.203125 6.597656-12.300781 6.597656h-180c-5.097656 0-9.601562-2.402344-12.300781-6.597656-3-3.902344-3.601563-9.304688-1.796875-13.800782.296875-.902343 1.199218-2.402343 2.398437-4.800781 5.699219-11.398437 23.699219-47.601562 26.398438-98.902343.300781-8.398438 7.5-15 15.601562-14.097657h119.398438c7.199219-.601562 15.300781 5.699219 15.601562 14.097657 1.800781 33.902343 10.800781 68.601562 26.398438 99.203124 1.199219 2.097657 2.101562 3.898438 2.402343 4.5 1.800782 4.496094 1.199219 9.898438-1.800781 13.800782zm0 0" fill="#a8d3d8"/><path d="m269.097656 491.601562c1.804688 4.496094 1.203125 9.898438-1.796875 13.800782-2.699219 4.195312-7.203125 6.597656-12.300781 6.597656h-90v-138.199219h59.699219c7.199219-.601562 15.300781 5.699219 15.601562 14.097657 1.800781 33.902343 10.800781 68.601562 26.398438 99.203124 1.199219 2.097657 2.101562 3.898438 2.398437 4.5zm0 0" fill="#8ebac5"/><path d="m300 285c0 74.398438-60.601562 135-135 135s-135-60.601562-135-135c0-8.402344 6.597656-15 15-15h240c8.402344 0 15 6.597656 15 15zm0 0" fill="#c6e2e7"/><path d="m300 285c0 74.398438-60.601562 135-135 135v-150h120c8.402344 0 15 6.597656 15 15zm0 0" fill="#a8d3d8"/><path d="m300 45v225h-270v-225c0-24.902344 20.097656-45 45-45h180c24.902344 0 45 20.097656 45 45zm0 0" fill="#c6e2e7"/><path d="m300 45v225h-135v-270h90c24.902344 0 45 20.097656 45 45zm0 0" fill="#a8d3d8"/><path d="m135 90h-30c-8.289062 0-15-6.710938-15-15s6.710938-15 15-15h30c8.289062 0 15 6.710938 15 15s-6.710938 15-15 15zm0 0" fill="#3e5959"/><path d="m345 90c-24.902344 0-45-20.097656-45-45 0-8.402344-6.597656-15-15-15s-15 6.597656-15 15c0 24.902344-20.097656 45-45 45-8.402344 0-15 6.597656-15 15s6.597656 15 15 15c24.902344 0 45 20.097656 45 45 0 8.402344 6.597656 15 15 15s15-6.597656 15-15c0-24.902344 20.097656-45 45-45 8.402344 0 15-6.597656 15-15s-6.597656-15-15-15zm0 0" fill="#ffd400"/><path d="m360 105c0 8.402344-6.597656 15-15 15-24.902344 0-45 20.097656-45 45 0 8.402344-6.597656 15-15 15v-150c8.402344 0 15 6.597656 15 15 0 24.902344 20.097656 45 45 45 8.402344 0 15 6.597656 15 15zm0 0" fill="#fdbf00"/><path d="m330 270c0 16.5-13.5 30-30 30h-270c-16.5 0-30-13.5-30-30s13.5-30 30-30h270c16.5 0 30 13.5 30 30zm0 0" fill="#deecf1"/><path d="m330 270c0 16.5-13.5 30-30 30h-135v-60h135c16.5 0 30 13.5 30 30zm0 0" fill="#c6e2e7"/><path d="m465 180c-24.902344 0-45-20.097656-45-45 0-8.402344-6.597656-15-15-15s-15 6.597656-15 15c0 24.902344-20.097656 45-45 45-8.402344 0-15 6.597656-15 15s6.597656 15 15 15c24.902344 0 45 20.097656 45 45 0 8.402344 6.597656 15 15 15s15-6.597656 15-15c0-24.902344 20.097656-45 45-45 8.402344 0 15-6.597656 15-15s-6.597656-15-15-15zm0 0" fill="#ffd400"/><path d="m480 195c0 8.402344-6.597656 15-15 15-24.902344 0-45 20.097656-45 45 0 8.402344-6.597656 15-15 15v-150c8.402344 0 15 6.597656 15 15 0 24.902344 20.097656 45 45 45 8.402344 0 15 6.597656 15 15zm0 0" fill="#fdbf00"/></svg>