<svg height="512pt" viewBox="-11 0 512 512" width="512pt" xmlns="http://www.w3.org/2000/svg"><path d="m329.984375 293.929688-85.058594-22.402344-22.40625 120.734375 22.40625 119.738281h124.726563c8.125 0 14.617187-6.742188 14.339844-14.855469-3.164063-92.855469-54.007813-203.214843-54.007813-203.214843zm0 0" fill="#a3f0f1"/><path d="m200.117188 283.328125-40.238282 10.601563s-50.839844 110.359374-54.007812 203.214843c-.28125 8.113281 6.210937 14.855469 14.339844 14.855469h79.90625l22.40625-119.738281zm0 0" fill="#a3f0f1"/><path d="m244.925781 271.527344v240.472656h-44.808593v-228.671875zm0 0" fill="#70d4d3"/><path d="m389.820312 57.539062c-8.410156-8.140624-20.992187-20.753906-39.230468-33.582031h-146.96875c-2.835938-7.335937-8.128906-17.917969-14.71875-16.617187-5.292969 1.046875-18.945313 5.660156-30.59375 9.761718-14.660156 5.164063-28.214844 13.0625-39.929688 23.277344-7.597656 6.625-13.625 12.597656-18.335937 17.160156-63.140625 61.140626-84.132813 249.855469-84.132813 249.855469l36.632813 27.835938 42.800781-16.878907s11.925781-88.480468 30.511719-142.25c0 0 11.117187 38.167969 34.019531 73.019532l20.246094 22.40625h133.519531l16.34375-22.40625c22.898437-34.851563 34.019531-73.019532 34.019531-73.019532 18.589844 53.769532 30.511719 142.25 30.511719 142.25l42.800781 16.878907 36.632813-27.835938s-20.992188-188.714843-84.128907-249.855469zm0 0" fill="#a3f0f1"/><path d="m188.902344 7.339844s33.214844-7.339844 60.011718-7.339844c26.800782 0 60.015626 7.339844 60.015626 7.339844l15.246093 24.710937-41.820312 104.882813-33.4375 43.597656-44.230469-48.242188-27.882812-84.972656zm0 0" fill="#81e2e1"/><path d="m216.6875 180.53125c-50.929688-58.96875-58.328125-128.40625-69.4375-156.574219-2.699219-6.839843.898438-14.535156 7.867188-16.875l19.265624-6.472656c5.863282-1.96875 12.238282.984375 14.519532 6.730469 9.738281 24.519531 15.402344 88.214844 60.015625 141.441406v31.75zm0 0" fill="#70d4d3"/><path d="m216.6875 180.53125h32.226562v-31.75c-7.429687-8.863281-13.757812-18.019531-19.226562-27.234375-8.632812 12.195313-19.015625 23.832031-31.632812 34.234375 5.472656 8.359375 11.640624 16.652344 18.632812 24.75zm0 0" fill="#69c7c6"/><path d="m350.585938 23.953125c-13.414063 34.003906-25.96875 128.152344-105.660157 191.421875v56.152344l-44.808593 11.796875v-79.011719c0-7.121094 3.386718-13.808594 9.113281-18.03125 76.042969-56.074219 87.515625-148.238281 99.703125-178.9375 2.28125-5.757812 8.664062-8.703125 14.527344-6.730469l19.257812 6.472657c6.96875 2.339843 10.566406 10.035156 7.867188 16.867187zm0 0" fill="#70d4d3"/><path d="m489.753906 339.390625-3.089844-22.363281c-.851562-6.171875-6.542968-10.484375-12.714843-9.632813l-79.433594 10.960938c-6.171875.851562-10.484375 6.546875-9.632813 12.71875l3.085938 22.363281c.855469 6.171875 6.546875 10.488281 12.71875 9.632812l79.433594-10.960937c6.167968-.851563 10.484375-6.546875 9.632812-12.71875zm0 0" fill="#70d4d3"/><path d="m159.878906 249.121094h170.105469v44.808594h-170.105469zm0 0" fill="#81e2e1"/><path d="m.105469 339.390625 3.089843-22.363281c.851563-6.171875 6.542969-10.484375 12.714844-9.632813l79.433594 10.960938c6.171875.851562 10.484375 6.546875 9.632812 12.71875l-3.085937 22.363281c-.851563 6.171875-6.546875 10.488281-12.71875 9.632812l-79.429687-10.960937c-6.171876-.851563-10.488282-6.546875-9.636719-12.71875zm0 0" fill="#70d4d3"/></svg>