<svg height="464pt" viewBox="-23 0 464 464" width="464pt" xmlns="http://www.w3.org/2000/svg"><path d="m194.34375 370.347656 30.628906-30.625 11.3125 11.3125-30.625 30.628906zm0 0" fill="#898890"/><path d="m96 256v-144h-96s0 15.945312 0 15.910156v160.089844h64c17.671875 0 32-14.328125 32-32zm0 0" fill="#ffdaaa"/><path d="m128 184c0-17.671875-14.328125-32-32-32v64c17.671875 0 32-14.328125 32-32zm0 0" fill="#f1cfa2"/><path d="m1.3125 128c-.441406 0-.871094-.078125-1.3125-.089844l.0898438.089844zm0 0" fill="#78b9eb"/><path d="m96.441406 115.199219c-.144531.082031-.296875.136719-.441406.214843v36.585938h16c4.417969 0 8-3.582031 8-8v-56h-.175781c-6.734375 7.601562-14.585938 22.078125-23.382813 27.199219zm0 0" fill="#57565c"/><path d="m1.335938 0-1.335938 1.335938v126.574218c.441406 0 .871094.089844 1.3125.089844h47.566406c16.542969.03125 32.796875-4.308594 47.121094-12.585938.144531-.078124.296875-.132812.441406-.214843 8.765625-5.113281 16.660156-11.59375 23.382813-19.199219 15.636719-17.644531 24.242187-40.421875 24.175781-64v-32zm0 0" fill="#787680"/><path d="m232 464h-232v-104l64-40h71.839844c31.070312.027344 59.308594 18.0625 72.398437 46.238281.160157.320313.320313.722657.480469 1.042969 2.269531 4.921875 4.011719 10.070312 5.203125 15.359375zm0 0" fill="#3d9ae2"/><path d="m366.390625 209.609375-5.65625-5.65625-11.308594-11.3125-135.769531 135.757813 16.96875 16.976562 16.976562 16.96875 22.621094-22.632812 22.632813-22.621094 22.625-22.625 67.878906-67.890625zm0 0" fill="#78b9eb"/><path d="m372.046875 215.265625 22.632813-22.625-11.320313-11.320313-22.625 22.632813zm0 0" fill="#898890"/><path d="m366.390625 209.609375-5.65625-5.65625zm0 0" fill="#78b9eb"/><path d="m142.800781 464h-16.242187l-6.480469-38.71875 15.84375-2.5625zm0 0" fill="#1a6fb0"/><path d="m56 424h48v16h-48zm0 0" fill="#ffc477"/><path d="m24 424h16v16h-16zm0 0" fill="#ffc477"/><path d="m360.734375 170 11.3125-11.3125 45.261719 45.257812-11.3125 11.316407zm0 0" fill="#787680"/><g fill="#3d9ae2"><path d="m343.765625 243.539062 11.316406-11.3125 11.3125 11.3125-11.3125 11.316407zm0 0"/><path d="m321.140625 266.175781 11.3125-11.316406 11.3125 11.3125-11.308594 11.316406zm0 0"/><path d="m298.515625 288.804688 11.3125-11.316407 11.316406 11.316407-11.316406 11.3125zm0 0"/><path d="m275.882812 311.429688 11.316407-11.3125 11.3125 11.3125-11.3125 11.316406zm0 0"/><path d="m253.253906 334.054688 11.316406-11.3125 11.316407 11.320312-11.316407 11.3125zm0 0"/></g><path d="m64 328v-40h-64v72h32c17.652344-.050781 31.949219-14.347656 32-32zm0 0" fill="#f1cfa2"/><path d="m0 288h64v8h-64zm0 0" fill="#e6c599"/></svg>