<?xml version="1.0" encoding="iso-8859-1"?>
<!-- Generator: Adobe Illustrator 19.0.0, SVG Export Plug-In . SVG Version: 6.00 Build 0)  -->
<svg version="1.1" id="Capa_1" xmlns="http://www.w3.org/2000/svg" xmlns:xlink="http://www.w3.org/1999/xlink" x="0px" y="0px"
	 viewBox="0 0 512.001 512.001" style="enable-background:new 0 0 512.001 512.001;" xml:space="preserve">
<g>
	<path style="fill:#4FD9E0;" d="M256.001,463.847c-17.171,0-34.342-6.536-47.413-19.608c-26.144-26.144-26.144-68.683,0-94.827
		c26.144-26.145,68.683-26.145,94.827,0c26.144,26.144,26.144,68.683,0,94.827l0,0C290.343,457.312,273.172,463.847,256.001,463.847
		z"/>
	<path style="fill:#4FD9E0;" d="M352.786,322.473c-4.105,0-8.04-1.631-10.943-4.533c-22.887-22.889-53.374-35.493-85.842-35.493
		s-62.955,12.605-85.842,35.493c-2.902,2.902-6.838,4.533-10.943,4.533c-4.104,0-8.04-1.631-10.942-4.533l-47.22-47.22
		c-2.902-2.902-4.533-6.838-4.533-10.942c0-4.105,1.631-8.04,4.533-10.942c85.439-85.439,224.459-85.439,309.897,0
		c2.902,2.902,4.533,6.838,4.533,10.942c0,4.104-1.631,8.04-4.533,10.942l-47.22,47.22
		C360.827,320.842,356.89,322.473,352.786,322.473z"/>
	<path style="fill:#4FD9E0;" d="M449.305,225.955c-3.961,0-7.921-1.51-10.942-4.533c-100.555-100.554-264.169-100.554-364.723,0
		c-6.043,6.044-15.842,6.044-21.886,0l-47.221-47.22c-6.044-6.044-6.044-15.842,0-21.886C71.702,85.146,161.008,48.154,256,48.154
		c94.993,0,184.299,36.992,251.468,104.162c6.044,6.044,6.044,15.842,0,21.886l-47.22,47.22
		C457.226,224.443,453.265,225.955,449.305,225.955z"/>
</g>
<g>
	<path style="fill:#16A9C7;" d="M256.001,48.154v97.853c66.042,0,132.084,25.139,182.361,75.415
		c3.022,3.022,6.983,4.533,10.942,4.533s7.921-1.51,10.942-4.533l47.22-47.22c6.044-6.044,6.044-15.842,0-21.886
		C440.3,85.146,350.993,48.154,256.001,48.154z"/>
	<path style="fill:#16A9C7;" d="M256.001,184.755v97.692c32.469,0,62.954,12.605,85.842,35.493
		c2.902,2.902,6.838,4.533,10.943,4.533c4.104,0,8.04-1.631,10.942-4.533l47.22-47.22c2.902-2.902,4.533-6.838,4.533-10.942
		c0-4.105-1.631-8.04-4.533-10.942C368.23,206.115,312.116,184.755,256.001,184.755z"/>
	<path style="fill:#16A9C7;" d="M256.001,329.804v134.043c17.171,0,34.342-6.536,47.413-19.608l0,0
		c26.144-26.144,26.144-68.683,0-94.827C290.343,336.34,273.172,329.804,256.001,329.804z"/>
</g>
<g>
</g>
<g>
</g>
<g>
</g>
<g>
</g>
<g>
</g>
<g>
</g>
<g>
</g>
<g>
</g>
<g>
</g>
<g>
</g>
<g>
</g>
<g>
</g>
<g>
</g>
<g>
</g>
<g>
</g>
</svg>
